<svg width="20" height="20" viewBox="0 0 20 20" fill="none" xmlns="http://www.w3.org/2000/svg">
<path d="M10 1.73911C8.63636 1.73911 7.57102 2.21918 6.80398 3.17932C6.03693 4.13947 5.65341 5.36682 5.65341 6.86139C5.64394 8.71827 6.26894 10.1902 7.52841 11.2771C7.68939 11.4221 7.74621 11.6078 7.69886 11.8342L7.37216 12.4864C7.26799 12.7038 7.11411 12.8736 6.91051 12.9959C6.70691 13.1182 6.27841 13.2925 5.625 13.519C5.59659 13.5281 4.99763 13.7137 3.82812 14.0761C2.65862 14.4384 2.03598 14.6377 1.96023 14.6739C1.16477 14.9909 0.643939 15.3215 0.397727 15.6657C0.132576 16.2364 0 17.6811 0 20H20C20 17.6811 19.8674 16.2364 19.6023 15.6657C19.3561 15.3215 18.8352 14.9909 18.0398 14.6739C17.964 14.6377 17.3414 14.4384 16.1719 14.0761C15.0024 13.7137 14.4034 13.5281 14.375 13.519C13.7216 13.2925 13.2931 13.1182 13.0895 12.9959C12.8859 12.8736 12.732 12.7038 12.6278 12.4864L12.3011 11.8342C12.2538 11.6078 12.3106 11.4221 12.4716 11.2771C13.7311 10.1902 14.3561 8.71827 14.3466 6.86139C14.3466 5.36682 13.9631 4.13947 13.196 3.17932C12.429 2.21918 11.3636 1.73911 10 1.73911Z" fill="#F7F7F7"/>
</svg>
