<svg width="36" height="36" viewBox="0 0 36 36" fill="none" xmlns="http://www.w3.org/2000/svg">
<path d="M33 0H3C1.35 0 0 1.35 0 3V33C0 34.65 1.35 36 3 36H33C34.65 36 36 34.65 36 33V3C36 1.35 34.65 0 33 0Z" fill="#0D58BA"/>
<path d="M18.7539 24.75C19.5039 24.75 19.5039 23.7 19.5039 23.25C19.5039 22.5 20.2539 21.75 21.0039 21.75C21.7539 21.75 23.0289 23.025 24.0039 24C24.7539 24.75 24.7539 24.75 25.5039 24.75C26.2539 24.75 27.7539 24.75 27.7539 24.75C27.7539 24.75 29.2539 24.675 29.2539 23.25C29.2539 22.8 28.7289 21.975 27.0039 20.25C25.5039 18.75 24.7539 19.5 27.0039 16.5C28.3539 14.625 29.4039 12.975 29.2539 12.525C29.1039 12.075 25.2789 11.325 24.7539 12C23.2539 14.25 22.9539 14.775 22.5039 15.75C21.7539 17.25 21.6789 18 21.0039 18C20.3289 18 20.2539 16.575 20.2539 15.75C20.2539 13.275 20.6289 11.55 19.5039 11.25C19.5039 11.25 18.0039 11.25 17.2539 11.25C16.0539 11.25 15.0039 12 15.0039 12C15.0039 12 14.1039 12.75 14.2539 12.75C14.4789 12.75 15.7539 12.45 15.7539 13.5C15.7539 14.25 15.7539 15 15.7539 15C15.7539 15 15.7539 18 15.0039 18C14.2539 18 12.7539 15 11.2539 12.75C10.6539 11.85 10.5039 12 9.75386 12C8.92886 12 8.25386 12 7.50386 12C6.75386 12 6.67886 12.45 6.75386 12.75C8.25386 16.5 9.30386 18.825 12.1539 21.825C14.7789 24.525 16.5039 24.675 18.0039 24.75C18.3789 24.75 18.0039 24.75 18.7539 24.75Z" fill="white"/>
</svg>
