<svg width="36" height="36" viewBox="0 0 36 36" fill="none" xmlns="http://www.w3.org/2000/svg">
<path d="M33 0H3C1.35 0 0 1.35 0 3V33C0 34.65 1.35 36 3 36H33C34.65 36 36 34.65 36 33V3C36 1.35 34.65 0 33 0Z" fill="#0D58BA"/>
<path d="M29.025 13.498C29.025 13.498 28.8 11.923 28.125 11.248C27.3 10.348 26.325 10.348 25.875 10.273C22.725 10.123 18 10.123 18 10.123C18 10.123 13.275 10.123 10.125 10.348C9.675 10.423 8.7 10.423 7.875 11.323C7.2 11.998 6.975 13.573 6.975 13.573C6.975 13.573 6.75 15.073 6.75 16.873V19.123C6.75 20.923 6.975 22.498 6.975 22.498C6.975 22.498 7.2 24.073 7.875 24.748C8.7 25.648 9.825 25.648 10.35 25.723C12.15 25.873 18 25.873 18 25.873C18 25.873 22.725 25.948 25.875 25.723C26.325 25.648 27.3 25.648 28.125 24.748C28.8 24.073 29.025 22.498 29.025 22.498C29.025 22.498 29.25 20.923 29.25 19.123V16.873C29.25 15.073 29.025 13.498 29.025 13.498ZM15 20.998V14.998L21 17.998L15 20.998Z" fill="white"/>
</svg>
