<svg width="21" height="14" viewBox="0 0 21 14" fill="none" xmlns="http://www.w3.org/2000/svg">
<path d="M5.00293 8.06934H2.52441V13H0.300781V0.203125H4.80078C6.27734 0.203125 7.41699 0.53418 8.21973 1.19629C9.02246 1.8584 9.42383 2.81641 9.42383 4.07031C9.42383 4.92578 9.21582 5.64355 8.7998 6.22363C8.38965 6.79785 7.81543 7.24023 7.07715 7.55078L9.95117 12.8857V13H7.56934L5.00293 8.06934ZM2.52441 6.28516H4.80957C5.55957 6.28516 6.14551 6.09766 6.56738 5.72266C6.98926 5.3418 7.2002 4.82324 7.2002 4.16699C7.2002 3.48145 7.00391 2.95117 6.61133 2.57617C6.22461 2.20117 5.64453 2.00781 4.87109 1.99609H2.52441V6.28516ZM20.8936 0.203125V8.75488C20.8936 10.1143 20.457 11.1924 19.584 11.9893C18.7168 12.7803 17.5596 13.1758 16.1123 13.1758C14.6475 13.1758 13.4844 12.7861 12.623 12.0068C11.7617 11.2217 11.3311 10.1348 11.3311 8.74609V0.203125H13.5459V8.76367C13.5459 9.61914 13.7627 10.2725 14.1963 10.7236C14.6299 11.1748 15.2686 11.4004 16.1123 11.4004C17.8232 11.4004 18.6787 10.498 18.6787 8.69336V0.203125H20.8936Z" fill="#F7F7F7"/>
</svg>
