<svg width="18" height="18" viewBox="0 0 18 18" fill="none" xmlns="http://www.w3.org/2000/svg">
<path d="M16.795 3.09503C16.7336 3.04512 16.6613 3.01049 16.5839 2.99397C16.5066 2.97746 16.4264 2.97953 16.35 3.00003L11.545 4.50003L6.73001 2.05503C6.66419 2.02457 6.59253 2.00879 6.52001 2.00879C6.44748 2.00879 6.37582 2.02457 6.31001 2.05503L1.31001 4.10003C1.21791 4.13786 1.1392 4.20233 1.08397 4.28517C1.02875 4.36802 0.999508 4.46546 1.00001 4.56503V14.805C1.00041 14.8869 1.02093 14.9675 1.05975 15.0396C1.09857 15.1117 1.15451 15.1731 1.22265 15.2186C1.29079 15.264 1.36904 15.292 1.45053 15.3001C1.53202 15.3082 1.61426 15.2961 1.69001 15.265L6.50001 13.29L11.295 15.75C11.3662 15.7865 11.445 15.8053 11.525 15.805C11.5747 15.8126 11.6253 15.8126 11.675 15.805L16.675 14.245C16.7804 14.212 16.8718 14.1451 16.9351 14.0546C16.9985 13.9642 17.0301 13.8553 17.025 13.745V3.50003C17.0224 3.41892 17.0001 3.33967 16.96 3.26911C16.92 3.19855 16.8633 3.1388 16.795 3.09503ZM16 13.375L11.84 14.675V13.53H11.04V14.53L6.84001 12.375V11.53H6.04001V12.39L2.00001 14.055V4.89503L6.04001 3.23003V4.40503H6.84001V3.23503L11.04 5.38503V6.43503H11.84V5.50003L16 4.18003V13.375Z" fill="#0D58BA"/>
<path d="M11.04 7.53003H11.84V9.43503H11.04V7.53003Z" fill="#0D58BA"/>
<path d="M11.04 10.53H11.84V12.435H11.04V10.53Z" fill="#0D58BA"/>
<path d="M6.04004 5.53003H6.84004V7.43503H6.04004V5.53003Z" fill="#0D58BA"/>
<path d="M6.04004 8.565H6.84004V10.44H6.04004V8.565Z" fill="#0D58BA"/>
</svg>
