<svg width="416" height="189" viewBox="0 0 416 189" fill="none" xmlns="http://www.w3.org/2000/svg">
<path fill-rule="evenodd" clip-rule="evenodd" d="M138.034 130.915C140.224 128.436 142.589 125.506 143.353 116.827C144.188 107.335 138.993 97.2168 138.993 97.2168L139.494 97.0559C139.494 97.0559 139.494 97.0559 140.828 96.8142C142.163 96.5723 142.999 95.6045 142.914 93.4283C142.831 91.2513 141.913 88.3493 141.162 84.5602C140.411 80.7718 141.412 77.9502 141.412 77.9502C141.412 77.9502 140.327 78.2723 138.658 79.9651C136.989 81.6577 136.322 83.5927 136.322 83.5927C136.322 83.5927 135.155 81.0134 133.652 79.0383C132.087 76.9824 132.734 73.516 132.734 73.516C132.734 73.516 130.73 75.3697 129.895 79.4014C129.061 83.4321 132.316 91.6545 132.316 91.6545C132.316 91.6545 131.482 92.2996 129.811 92.864C128.144 93.4283 127.225 93.9116 127.141 95.2823C127.058 96.653 129.311 99.3938 131.147 102.779C132.984 106.166 134.652 114.146 131.648 120.918C128.643 127.69 119.045 132.446 114.289 133.575C109.531 134.703 109.614 137.283 110.784 139.298C111.951 141.314 112.118 141.153 112.786 143.974C113.453 146.795 114.964 146.637 118.942 145.97C123.261 145.244 127.892 140.991 127.892 140.991C127.892 140.991 129.978 140.991 132.149 141.798C134.319 142.603 131.815 145.103 131.815 145.103C131.815 145.103 129.394 146.716 122.801 147.844C116.208 148.972 108.78 146.231 108.78 146.231C108.78 146.231 108.948 144.297 108.863 143.168C108.78 142.04 107.194 140.991 102.104 139.379C97.7608 138.003 91.7176 137.919 90.0378 137.924C87.9182 137.92 80.4324 138.006 76.0927 139.379C71.0021 140.991 69.4168 142.04 69.3332 143.168C69.25 144.297 69.4168 146.231 69.4168 146.231C69.4168 146.231 61.9889 148.972 55.3963 147.844C48.8016 146.716 46.3828 145.103 46.3828 145.103C46.3828 145.103 43.8779 142.604 46.0472 141.798C48.2176 140.991 50.3048 140.991 50.3048 140.991C50.3048 140.991 54.9362 145.244 59.2554 145.97C63.2331 146.637 64.7427 146.795 65.4118 143.974C66.0784 141.153 66.2459 141.314 67.4136 139.299C68.5815 137.283 68.666 134.703 63.9086 133.575C59.1506 132.446 49.5531 127.69 46.5491 120.918C43.5444 114.146 45.2136 106.166 47.05 102.779C48.8861 99.3938 51.139 96.653 51.0554 95.2823C50.9721 93.9116 50.054 93.4286 48.3845 92.864C46.7156 92.2996 45.8806 91.6545 45.8806 91.6545C45.8806 91.6545 49.1366 83.4321 48.3006 79.4014C47.4665 75.3703 45.4641 73.5166 45.4641 73.5166C45.4641 73.5166 46.1105 76.9824 44.5452 79.0383C43.0419 81.0134 41.8749 83.5927 41.8749 83.5927C41.8749 83.5927 41.2077 81.6582 39.5388 79.9651C37.8687 78.2723 36.7837 77.9502 36.7837 77.9502C36.7837 77.9502 37.786 80.7718 37.0339 84.5602C36.2828 88.3493 35.3659 91.2513 35.2817 93.4283C35.1978 95.6045 36.0338 96.5723 37.3695 96.8142C38.704 97.0559 38.704 97.0559 38.704 97.0559L39.2047 97.2171C39.2047 97.2171 34.0087 107.335 34.8429 116.827C35.6067 125.506 37.9735 128.436 40.1639 130.915C42.3553 133.393 45.2972 134.966 45.2972 134.966C45.2972 134.966 39.0384 135.752 39.3719 139.218C39.7051 142.684 40.79 145.103 41.0402 147.924C41.2904 150.746 40.4562 153.407 42.6267 155.583C44.7966 157.76 49.1366 160.098 57.6492 159.211C66.1617 158.324 71.0021 155.583 74.5907 154.052C78.1802 152.52 80.6832 150.585 80.934 150.344C81.1842 150.101 80.934 149.618 80.934 149.618C80.934 149.618 84.0213 148.972 86.2748 148.812C87.3821 148.732 88.4683 148.653 89.2876 148.593C89.6098 148.628 90.3713 148.7 91.9224 148.812C94.1758 148.972 97.2631 149.618 97.2631 149.618C97.2631 149.618 97.013 150.101 97.2631 150.344C97.5133 150.585 100.017 152.52 103.606 154.051C107.194 155.583 112.035 158.324 120.549 159.211C129.061 160.098 133.4 157.76 135.57 155.583C137.74 153.407 136.905 150.746 137.156 147.924C137.407 145.103 138.492 142.684 138.826 139.218C139.159 135.751 132.901 134.966 132.901 134.966C132.901 134.966 135.842 133.393 138.034 130.915" fill="#231F20"/>
<path fill-rule="evenodd" clip-rule="evenodd" d="M106.36 141.798C105.442 141.233 101.687 139.701 98.6824 139.137C94.4644 138.345 83.8889 138.316 79.5146 139.137C76.51 139.702 72.7549 141.233 71.8362 141.798C70.9176 142.362 70.5017 143.168 70.5017 143.168C70.5017 143.168 71.4191 143.652 73.5063 142.845C75.5914 142.04 77.5956 142.04 77.9287 142.684C78.2631 143.329 78.2631 144.62 78.5133 145.264C78.7641 145.909 79.5988 146.796 79.5988 146.796C79.5988 146.796 82.3521 145.99 84.856 145.829C87.8506 145.635 89.8478 145.604 93.3404 145.828C95.8444 145.99 98.5976 146.795 98.5976 146.795C98.5976 146.795 99.4335 145.909 99.6837 145.264C99.9339 144.62 99.9339 143.329 100.268 142.684C100.602 142.04 102.604 142.04 104.691 142.845C106.777 143.652 107.696 143.168 107.696 143.168C107.696 143.168 107.278 142.362 106.36 141.798Z" fill="#F9AD5E"/>
<path fill-rule="evenodd" clip-rule="evenodd" d="M38.5791 80.0058C38.5791 80.0058 40.4561 81.6582 41.0401 82.9488C41.6253 84.2378 41.6253 85.8505 41.6253 85.8505C41.6253 85.8505 42.5421 83.2299 43.7109 81.5374C44.8788 79.8446 45.8248 78.7805 46.0471 77.7887C46.2567 76.8616 46.1319 75.4508 46.1319 75.4508C46.1319 75.4508 48.0264 78.8045 47.8005 81.6582C47.4664 85.8908 45.5467 90.5257 44.7126 92.6223C43.8778 94.7183 43.5034 96.8543 44.2128 98.4266C44.5196 99.108 45.0457 99.0714 45.0457 99.0714C45.0457 99.0714 42.5433 98.5073 40.8732 97.1369C39.2046 95.7662 39.5393 96.3306 38.6206 95.8467C37.7026 95.3628 38.1609 91.574 38.7454 89.6395C39.33 87.7045 40.0384 84.7217 39.831 82.9081C39.6889 81.6822 38.5791 80.0058 38.5791 80.0058" fill="#F9AD5E"/>
<path fill-rule="evenodd" clip-rule="evenodd" d="M41.8748 98.5878C41.8748 98.5878 43.8772 99.6352 44.6286 99.7162C45.3798 99.797 46.7991 98.4269 47.2995 97.3786C47.8005 96.3306 48.8015 94.8794 49.47 94.7182C50.1372 94.557 50.5549 95.2826 49.0529 97.8622C47.5497 100.442 41.7918 110.357 44.9639 118.581C48.1342 126.803 53.392 129.624 58.1482 131.963C62.9056 134.301 66.1613 134.462 66.9958 135.832C67.8305 137.203 67.497 137.606 67.0794 138.493C66.6623 139.379 66.0783 140.186 65.7448 140.911C65.4105 141.637 65.1597 142.04 65.1597 142.04C65.1597 142.04 62.4882 140.508 58.3993 139.137C54.3103 137.767 46.3814 133.979 42.2089 128.335C38.0361 122.692 36.7009 115.839 38.2862 108.664C39.8712 101.49 41.8748 98.5878 41.8748 98.5878" fill="#F9AD5E"/>
<path fill-rule="evenodd" clip-rule="evenodd" d="M40.373 141.314C40.373 141.314 39.7885 139.298 40.2897 138.412C40.7901 137.525 42.1873 137.384 43.8574 137.626C45.5257 137.868 46.5492 139.057 46.5492 139.057C46.5492 139.057 44.462 139.541 43.6284 140.266C42.7925 140.991 42.6268 142.684 42.6268 142.684L40.373 141.314" fill="#F9AD5E"/>
<path fill-rule="evenodd" clip-rule="evenodd" d="M40.6238 142.362C40.6238 142.362 41.4579 145.587 41.7081 147.038C41.9583 148.489 41.8187 150.954 44.7127 153.084C47.8633 155.402 52.8912 156.953 59.986 155.664C67.0795 154.374 72.1704 152.197 74.5078 150.988C76.8439 149.778 79.1819 148.408 79.1819 148.408C79.1819 148.408 78.1803 146.795 77.6793 145.506C77.1783 144.216 77.0114 143.652 77.0114 143.652C77.0114 143.652 68.8323 148.086 61.3211 148.73C53.8099 149.375 47.3826 146.474 44.9641 145.264C42.5423 144.055 40.6238 142.362 40.6238 142.362" fill="#F9AD5E"/>
<path fill-rule="evenodd" clip-rule="evenodd" d="M37.6198 78.9979C37.6198 78.9979 39.3302 81.2551 39.5389 83.3517C39.7866 85.847 38.3397 90.1147 37.9536 91.4128C37.243 93.7905 37.9536 95.6451 37.9536 95.6451C37.9536 95.6451 36.2847 96.4108 35.8664 94.3956C35.4493 92.3806 36.8668 87.9462 37.4523 85.2858C38.0363 82.6255 37.6198 78.9979 37.6198 78.9979" fill="#ED1737"/>
<path fill-rule="evenodd" clip-rule="evenodd" d="M39.705 97.2171L41.3745 98.1849C41.3745 98.1849 37.1193 106.407 37.1193 113.502C37.1193 120.595 39.0365 125.917 43.6276 130.753C48.2176 135.59 55.1448 138.734 57.2314 139.379C59.3174 140.024 63.4063 141.395 63.9912 141.798C64.5758 142.201 64.9095 142.443 64.9095 142.443L64.4077 144.297C64.4077 144.297 63.4896 142.281 57.8993 140.589C52.3065 138.895 39.7719 132.777 37.1595 124.748C34.4057 116.283 35.0091 111.708 36.9091 105.158C38.717 98.9219 39.705 97.2171 39.705 97.2171" fill="#ED1737"/>
<path fill-rule="evenodd" clip-rule="evenodd" d="M47.1326 139.299L49.0529 140.427C49.0529 140.427 46.3827 140.83 45.381 141.395C44.3785 141.959 44.4618 143.007 44.7126 143.491C44.964 143.974 44.964 143.974 44.964 143.974L42.981 142.825C42.981 142.825 42.9604 140.83 44.4618 140.186C45.965 139.541 47.1326 139.299 47.1326 139.299" fill="#ED1737"/>
<path fill-rule="evenodd" clip-rule="evenodd" d="M41.8762 150.585C41.8762 150.585 44.4204 155.563 50.6798 156.369C56.9392 157.175 61.5725 156.067 67.665 154.212C73.7566 152.358 79.4308 148.812 79.4308 148.812L80.0987 150.021C80.0987 150.021 71.0022 155.986 61.9062 157.76C52.8085 159.533 48.3007 158.324 45.4641 156.712C42.6267 155.099 42.4601 154.455 42.1257 153.648C41.792 152.842 41.8762 150.585 41.8762 150.585" fill="#ED1737"/>
<path fill-rule="evenodd" clip-rule="evenodd" d="M70.5017 143.168C70.5017 143.168 71.2102 142.241 73.2552 141.395C74.8087 140.751 75.2579 140.83 75.2579 140.83C75.2579 140.83 73.38 141.677 72.4626 142.322C71.5457 142.967 71.0848 143.853 71.0848 143.853L70.5017 143.168Z" fill="#231F20"/>
<path fill-rule="evenodd" clip-rule="evenodd" d="M71.7114 143.491C71.7114 143.491 72.1703 142.725 73.1713 142.161C74.173 141.597 74.7987 141.395 74.7987 141.395L72.9218 143.41L71.7114 143.491Z" fill="#231F20"/>
<path fill-rule="evenodd" clip-rule="evenodd" d="M77.2618 144.014C77.2618 144.014 75.5493 145.063 74.007 145.627C72.4629 146.192 72.4629 146.192 72.4629 146.192C72.4629 146.192 74.591 145.627 75.7598 145.183C76.9274 144.74 77.5541 144.256 77.5541 144.256L77.2618 144.014" fill="#231F20"/>
<path fill-rule="evenodd" clip-rule="evenodd" d="M77.6373 144.74C77.6373 144.74 77.0115 145.386 75.3835 145.95C74.3434 146.311 72.7136 146.837 72.7136 146.837C72.7136 146.837 75.2167 146.474 76.1756 146.231C77.1363 145.99 78.138 145.466 78.138 145.466L77.6373 144.74" fill="#231F20"/>
<path fill-rule="evenodd" clip-rule="evenodd" d="M78.1795 145.909C78.1795 145.909 75.8422 146.836 74.6324 147.159C73.4215 147.481 72.4202 147.885 72.4202 147.885C72.4202 147.885 74.5076 147.643 75.9676 147.36C77.4296 147.078 78.5133 146.514 78.5133 146.514L78.1795 145.909" fill="#231F20"/>
<path fill-rule="evenodd" clip-rule="evenodd" d="M78.7216 146.998C78.7216 146.998 76.5517 147.885 75.4244 148.167C74.2986 148.449 74.2986 148.449 74.2986 148.449C74.2986 148.449 76.8861 148.046 77.7621 147.804C78.6389 147.562 78.9306 147.441 78.9306 147.441L78.7216 146.998" fill="#231F20"/>
<path fill-rule="evenodd" clip-rule="evenodd" d="M40.6024 141.677C40.6024 141.677 40.0385 139.682 40.6651 138.835C41.2903 137.989 42.4173 138.352 42.4173 138.352C42.4173 138.352 41.2903 138.533 41.1643 139.379C41.0401 140.226 41.4778 142.1 41.4778 142.1L40.6024 141.677" fill="#231F20"/>
<path fill-rule="evenodd" clip-rule="evenodd" d="M41.6037 142.463C41.6037 142.463 41.2281 140.77 41.541 140.045C41.8536 139.318 42.3551 138.895 42.3551 138.895C42.3551 138.895 42.041 139.803 42.105 140.77C42.1664 141.737 42.7922 143.188 42.7922 143.188L41.6037 142.463" fill="#231F20"/>
<path fill-rule="evenodd" clip-rule="evenodd" d="M40.7278 144.095C40.7278 144.095 42.1665 145.305 43.1063 145.909C44.0447 146.514 44.6704 146.816 44.6704 146.816C44.6704 146.816 42.4173 146.03 41.6037 145.547C40.7899 145.063 40.7899 145.063 40.7899 145.063L40.7278 144.095" fill="#231F20"/>
<path fill-rule="evenodd" clip-rule="evenodd" d="M41.228 146.816C41.228 146.816 42.2297 147.783 43.6069 148.691C44.9835 149.597 45.5465 149.839 45.5465 149.839C45.5465 149.839 43.6696 149.416 42.6679 148.812C41.6663 148.207 41.228 147.602 41.228 147.602V146.816Z" fill="#231F20"/>
<path fill-rule="evenodd" clip-rule="evenodd" d="M41.353 148.207C41.353 148.207 41.8537 148.933 43.0437 149.537C44.2328 150.142 44.9216 150.444 44.9216 150.444L41.9791 149.658L41.353 148.207" fill="#231F20"/>
<path fill-rule="evenodd" clip-rule="evenodd" d="M41.1028 145.426C41.1028 145.426 42.5421 146.877 44.5451 147.783C46.549 148.691 46.549 148.691 46.549 148.691C46.549 148.691 43.4822 147.723 42.5421 147.3C41.6038 146.877 41.2282 146.393 41.2282 146.393L41.1028 145.426Z" fill="#231F20"/>
<path fill-rule="evenodd" clip-rule="evenodd" d="M64.012 135.026C64.012 135.026 66.3284 135.751 66.8297 136.477C67.3295 137.203 67.5802 138.17 67.5802 138.17L67.0793 139.259C67.0793 139.259 66.7037 137.263 66.1403 136.719C65.5767 136.175 64.012 135.026 64.012 135.026" fill="#231F20"/>
<path fill-rule="evenodd" clip-rule="evenodd" d="M62.3855 135.328C62.3855 135.328 65.2014 136.356 65.8899 137.323C66.5789 138.291 66.7673 139.44 66.7673 139.44L66.2034 140.77C66.2034 140.77 65.577 138.17 64.576 137.203C63.574 136.235 62.3855 135.328 62.3855 135.328" fill="#231F20"/>
<path fill-rule="evenodd" clip-rule="evenodd" d="M62.7612 137.082C62.7612 137.082 64.8884 138.533 65.3896 139.561C65.89 140.588 65.9533 141.133 65.9533 141.133L65.5157 141.737C65.5157 141.737 64.8263 139.742 64.1999 138.957C63.5742 138.17 62.7612 137.082 62.7612 137.082" fill="#231F20"/>
<path fill-rule="evenodd" clip-rule="evenodd" d="M43.67 98.8093C43.67 98.8093 43.0439 98.1445 43.0439 96.5723C43.0439 95.0003 43.3565 94.2747 43.3565 94.2747C43.3565 94.2747 42.7305 96.0281 42.6057 96.8748C42.4803 97.7212 42.8565 98.5676 42.8565 98.5676L43.67 98.8093" fill="#231F20"/>
<path fill-rule="evenodd" clip-rule="evenodd" d="M42.8564 98.5676C42.8564 98.5676 42.0414 97.6001 42.0562 96.0834C42.0693 94.7625 42.4585 93.6641 42.4585 93.6641C42.4585 93.6641 41.5014 95.6586 41.4017 96.4006C41.3011 97.1416 41.5971 98.0217 41.5971 98.0217L42.8564 98.5676" fill="#231F20"/>
<path fill-rule="evenodd" clip-rule="evenodd" d="M41.2266 93.6679C41.2266 93.6679 40.9367 95.1715 40.9155 95.9076C40.8943 96.6422 41.4779 97.8417 41.4779 97.8417L40.1489 97.1694C40.1489 97.1694 40.038 96.0179 40.3518 95.1214C40.6659 94.225 41.2266 93.6679 41.2266 93.6679" fill="#231F20"/>
<path fill-rule="evenodd" clip-rule="evenodd" d="M39.9765 93.5491C39.9765 93.5491 39.6636 94.3956 39.7263 95.2422C39.7884 96.0887 40.3518 97.1161 40.3518 97.1161L39.3507 96.4511C39.3507 96.4511 39.0999 95.0609 39.3507 94.4561C39.6009 93.8511 39.9765 93.5491 39.9765 93.5491" fill="#231F20"/>
<path fill-rule="evenodd" clip-rule="evenodd" d="M49.741 94.3955C49.741 94.3955 49.5171 96.5635 48.3229 98.4515C47.1292 100.339 45.8601 102.437 45.8601 102.437C45.8601 102.437 47.8749 98.2414 48.2471 96.773C48.6209 95.3049 48.6209 94.3955 48.6209 94.3955H49.741Z" fill="#231F20"/>
<path fill-rule="evenodd" clip-rule="evenodd" d="M47.9884 95.5442C47.9884 95.5442 47.8285 97.3183 47.1933 98.6481C46.5567 99.9784 45.0459 102.195 45.0459 102.195L46.5567 97.835L47.9884 95.5442Z" fill="#231F20"/>
<path fill-rule="evenodd" clip-rule="evenodd" d="M45.6096 99.1121C45.6096 99.1121 45.6096 99.656 44.9838 100.623C44.3584 101.59 43.6699 102.135 43.6699 102.135C43.6699 102.135 44.3584 100.684 44.5452 100.139C44.7333 99.5957 44.7966 99.3531 44.7966 99.3531L45.6096 99.1121" fill="#231F20"/>
<path fill-rule="evenodd" clip-rule="evenodd" d="M43.8575 99.172C43.8575 99.172 43.8575 99.8371 43.4198 100.805C42.9812 101.772 42.4802 102.377 42.4802 102.377C42.4802 102.377 43.1066 100.442 43.2314 99.9582C43.3565 99.4743 43.3565 98.8698 43.3565 98.8698L43.8575 99.172Z" fill="#231F20"/>
<path fill-rule="evenodd" clip-rule="evenodd" d="M42.8562 98.5676C42.8562 98.5676 42.7923 99.7162 42.2925 100.744C41.7919 101.772 41.6038 102.135 41.6038 102.135L42.2298 98.6279L42.8562 98.5676" fill="#231F20"/>
<path fill-rule="evenodd" clip-rule="evenodd" d="M139.619 80.0058C139.619 80.0058 137.741 81.6582 137.156 82.9482C136.571 84.2378 136.571 85.8502 136.571 85.8502C136.571 85.8502 135.654 83.2299 134.487 81.5374C133.318 79.8446 132.372 78.7802 132.149 77.7887C131.94 76.8616 132.065 75.4508 132.065 75.4508C132.065 75.4508 130.171 78.8042 130.395 81.6582C130.73 85.8908 132.65 90.5257 133.485 92.6223C134.319 94.7183 134.694 96.8543 133.985 98.4263C133.678 99.108 133.15 99.0714 133.15 99.0714C133.15 99.0714 135.654 98.5067 137.323 97.1369C138.993 95.7657 138.658 96.3306 139.577 95.8467C140.495 95.3628 140.036 91.574 139.451 89.6395C138.868 87.7045 138.158 84.7217 138.367 82.9081C138.508 81.6822 139.619 80.0058 139.619 80.0058" fill="#F9AD5E"/>
<path fill-rule="evenodd" clip-rule="evenodd" d="M136.321 98.5878C136.321 98.5878 134.319 99.6352 133.567 99.7162C132.816 99.797 131.397 98.4268 130.896 97.3786C130.395 96.3306 129.394 94.8794 128.727 94.7182C128.059 94.5564 127.642 95.2826 129.143 97.8622C130.645 100.442 136.404 110.357 133.234 118.581C130.061 126.803 124.804 129.624 120.048 131.963C115.29 134.301 112.035 134.462 111.201 135.832C110.365 137.203 110.699 137.606 111.116 138.493C111.534 139.379 112.118 140.186 112.453 140.911C112.786 141.637 113.037 142.04 113.037 142.04C113.037 142.04 115.708 140.508 119.797 139.137C123.886 137.767 131.815 133.979 135.988 128.335C140.16 122.692 141.495 115.839 139.909 108.664C138.324 101.49 136.321 98.5878 136.321 98.5878" fill="#F9AD5E"/>
<path fill-rule="evenodd" clip-rule="evenodd" d="M137.824 141.314C137.824 141.314 138.408 139.298 137.907 138.412C137.406 137.525 136.008 137.384 134.34 137.626C132.67 137.868 131.647 139.057 131.647 139.057C131.647 139.057 133.733 139.541 134.569 140.266C135.403 140.991 135.57 142.684 135.57 142.684L137.824 141.314" fill="#F9AD5E"/>
<path fill-rule="evenodd" clip-rule="evenodd" d="M137.574 142.362C137.574 142.362 136.739 145.586 136.489 147.038C136.239 148.488 136.379 150.954 133.485 153.083C130.335 155.402 125.305 156.953 118.211 155.664C111.117 154.374 106.026 152.197 103.69 150.988C101.352 149.778 99.0154 148.408 99.0154 148.408C99.0154 148.408 100.017 146.795 100.518 145.506C101.019 144.216 101.186 143.652 101.186 143.652C101.186 143.652 109.364 148.086 116.876 148.73C124.387 149.375 130.814 146.473 133.234 145.264C135.654 144.055 137.574 142.362 137.574 142.362" fill="#F9AD5E"/>
<path fill-rule="evenodd" clip-rule="evenodd" d="M140.577 78.9979C140.577 78.9979 138.867 81.2551 138.658 83.3517C138.41 85.847 139.856 90.1147 140.244 91.4128C140.953 93.7905 140.244 95.6451 140.244 95.6451C140.244 95.6451 141.913 96.4108 142.33 94.3956C142.748 92.3801 141.329 87.9462 140.745 85.2858C140.16 82.6252 140.577 78.9979 140.577 78.9979" fill="#ED1737"/>
<path fill-rule="evenodd" clip-rule="evenodd" d="M138.492 97.2168L136.823 98.184C136.823 98.184 141.078 106.407 141.078 113.502C141.078 120.595 139.159 125.917 134.569 130.753C129.978 135.59 123.052 138.734 120.965 139.379C118.879 140.024 114.79 141.394 114.206 141.798C113.621 142.201 113.286 142.443 113.286 142.443L113.788 144.297C113.788 144.297 114.706 142.281 120.298 140.589C125.889 138.895 138.426 132.777 141.038 124.748C143.791 116.283 143.187 111.708 141.288 105.158C139.48 98.9219 138.492 97.2168 138.492 97.2168Z" fill="#ED1737"/>
<path fill-rule="evenodd" clip-rule="evenodd" d="M131.064 139.298L129.144 140.427C129.144 140.427 131.815 140.83 132.817 141.394C133.818 141.959 133.735 143.007 133.485 143.491C133.234 143.974 133.234 143.974 133.234 143.974L135.216 142.825C135.216 142.825 135.236 140.83 133.735 140.185C132.233 139.541 131.064 139.298 131.064 139.298" fill="#ED1737"/>
<path fill-rule="evenodd" clip-rule="evenodd" d="M136.322 150.584C136.322 150.584 133.777 155.563 127.517 156.369C121.259 157.175 116.625 156.067 110.533 154.212C104.441 152.358 98.7658 148.812 98.7658 148.812L98.0979 150.021C98.0979 150.021 107.193 155.986 116.292 157.76C125.388 159.533 129.895 158.324 132.734 156.712C135.571 155.099 135.736 154.454 136.071 153.648C136.405 152.842 136.322 150.584 136.322 150.584" fill="#ED1737"/>
<path fill-rule="evenodd" clip-rule="evenodd" d="M96.2622 146.716C92.6751 145.89 85.6091 145.87 81.9357 146.716C80.1826 147.119 79.7659 147.279 79.7659 147.279L80.7666 148.973C80.7666 148.973 82.8538 148.57 84.9407 148.327C87.0254 148.086 88.6116 148.005 88.6116 148.005L88.6228 147.976C89.8332 148.042 91.8688 148.167 93.257 148.327C95.3435 148.57 97.4301 148.972 97.4301 148.972L98.4321 147.279C98.4321 147.279 98.0147 147.119 96.2622 146.716" fill="#ED1737"/>
<path fill-rule="evenodd" clip-rule="evenodd" d="M107.696 143.168C107.696 143.168 106.986 142.241 104.942 141.395C103.389 140.751 102.938 140.83 102.938 140.83C102.938 140.83 104.817 141.677 105.733 142.322C106.652 142.967 107.111 143.853 107.111 143.853L107.696 143.168Z" fill="#231F20"/>
<path fill-rule="evenodd" clip-rule="evenodd" d="M106.484 143.491C106.484 143.491 106.026 142.725 105.025 142.161C104.023 141.596 103.398 141.395 103.398 141.395L105.275 143.41L106.484 143.491" fill="#231F20"/>
<path fill-rule="evenodd" clip-rule="evenodd" d="M100.936 144.014C100.936 144.014 102.647 145.063 104.19 145.627C105.733 146.191 105.733 146.191 105.733 146.191C105.733 146.191 103.606 145.627 102.438 145.183C101.269 144.74 100.643 144.256 100.643 144.256L100.936 144.014Z" fill="#231F20"/>
<path fill-rule="evenodd" clip-rule="evenodd" d="M100.56 144.74C100.56 144.74 101.186 145.386 102.813 145.95C103.853 146.311 105.483 146.837 105.483 146.837C105.483 146.837 102.981 146.474 102.02 146.231C101.06 145.99 100.059 145.466 100.059 145.466L100.56 144.74" fill="#231F20"/>
<path fill-rule="evenodd" clip-rule="evenodd" d="M100.017 145.909C100.017 145.909 102.354 146.836 103.565 147.158C104.774 147.481 105.776 147.884 105.776 147.884C105.776 147.884 103.69 147.642 102.228 147.36C100.768 147.078 99.6838 146.514 99.6838 146.514L100.017 145.909" fill="#231F20"/>
<path fill-rule="evenodd" clip-rule="evenodd" d="M99.4744 146.998C99.4744 146.998 101.644 147.885 102.772 148.167C103.898 148.449 103.898 148.449 103.898 148.449C103.898 148.449 101.31 148.046 100.435 147.804C99.5589 147.562 99.2666 147.441 99.2666 147.441L99.4744 146.998Z" fill="#231F20"/>
<path fill-rule="evenodd" clip-rule="evenodd" d="M137.595 141.677C137.595 141.677 138.159 139.682 137.533 138.835C136.906 137.989 135.78 138.352 135.78 138.352C135.78 138.352 136.906 138.533 137.032 139.379C137.157 140.226 136.719 142.1 136.719 142.1L137.595 141.677Z" fill="#231F20"/>
<path fill-rule="evenodd" clip-rule="evenodd" d="M136.594 142.463C136.594 142.463 136.969 140.77 136.657 140.045C136.343 139.318 135.842 138.895 135.842 138.895C135.842 138.895 136.155 139.803 136.093 140.77C136.029 141.737 135.404 143.188 135.404 143.188L136.594 142.463" fill="#231F20"/>
<path fill-rule="evenodd" clip-rule="evenodd" d="M137.47 144.095C137.47 144.095 136.029 145.305 135.091 145.909C134.152 146.514 133.527 146.816 133.527 146.816C133.527 146.816 135.78 146.03 136.594 145.547C137.407 145.063 137.407 145.063 137.407 145.063L137.47 144.095" fill="#231F20"/>
<path fill-rule="evenodd" clip-rule="evenodd" d="M136.97 146.816C136.97 146.816 135.967 147.783 134.59 148.691C133.213 149.597 132.65 149.839 132.65 149.839C132.65 149.839 134.528 149.416 135.529 148.812C136.531 148.207 136.97 147.602 136.97 147.602V146.816Z" fill="#231F20"/>
<path fill-rule="evenodd" clip-rule="evenodd" d="M136.845 148.207C136.845 148.207 136.343 148.933 135.154 149.537C133.964 150.142 133.275 150.444 133.275 150.444L136.218 149.658L136.845 148.207" fill="#231F20"/>
<path fill-rule="evenodd" clip-rule="evenodd" d="M137.094 145.426C137.094 145.426 135.655 146.877 133.652 147.783C131.649 148.691 131.649 148.691 131.649 148.691C131.649 148.691 134.715 147.723 135.655 147.3C136.594 146.877 136.969 146.393 136.969 146.393L137.094 145.426Z" fill="#231F20"/>
<path fill-rule="evenodd" clip-rule="evenodd" d="M114.186 135.026C114.186 135.026 111.869 135.751 111.368 136.477C110.868 137.203 110.617 138.17 110.617 138.17L111.118 139.259C111.118 139.259 111.494 137.263 112.057 136.719C112.62 136.175 114.186 135.026 114.186 135.026" fill="#231F20"/>
<path fill-rule="evenodd" clip-rule="evenodd" d="M115.812 135.328C115.812 135.328 112.995 136.356 112.306 137.323C111.619 138.291 111.43 139.44 111.43 139.44L111.994 140.77C111.994 140.77 112.62 138.17 113.621 137.203C114.623 136.235 115.812 135.328 115.812 135.328Z" fill="#231F20"/>
<path fill-rule="evenodd" clip-rule="evenodd" d="M115.436 137.082C115.436 137.082 113.309 138.533 112.808 139.561C112.306 140.588 112.245 141.133 112.245 141.133L112.683 141.737C112.683 141.737 113.371 139.742 113.998 138.957C114.623 138.17 115.436 137.082 115.436 137.082" fill="#231F20"/>
<path fill-rule="evenodd" clip-rule="evenodd" d="M134.528 98.8093C134.528 98.8093 135.154 98.1445 135.154 96.5723C135.154 95.0003 134.841 94.2747 134.841 94.2747C134.841 94.2747 135.467 96.0281 135.592 96.8748C135.716 97.7212 135.341 98.5676 135.341 98.5676L134.528 98.8093" fill="#231F20"/>
<path fill-rule="evenodd" clip-rule="evenodd" d="M135.342 98.5676C135.342 98.5676 136.156 97.6001 136.141 96.0825C136.128 94.7625 135.739 93.6641 135.739 93.6641C135.739 93.6641 136.696 95.6586 136.796 96.4006C136.896 97.1416 136.601 98.0217 136.601 98.0217L135.342 98.5676Z" fill="#231F20"/>
<path fill-rule="evenodd" clip-rule="evenodd" d="M136.971 93.6679C136.971 93.6679 137.261 95.1715 137.282 95.9076C137.302 96.6419 136.719 97.8417 136.719 97.8417L138.049 97.1694C138.049 97.1694 138.159 96.0179 137.845 95.1214C137.531 94.225 136.971 93.6679 136.971 93.6679" fill="#231F20"/>
<path fill-rule="evenodd" clip-rule="evenodd" d="M138.221 93.5491C138.221 93.5491 138.534 94.3956 138.471 95.2422C138.409 96.0887 137.845 97.1161 137.845 97.1161L138.847 96.4511C138.847 96.4511 139.097 95.0609 138.847 94.4561C138.597 93.8511 138.221 93.5491 138.221 93.5491Z" fill="#231F20"/>
<path fill-rule="evenodd" clip-rule="evenodd" d="M128.457 94.3955C128.457 94.3955 128.681 96.5635 129.874 98.4515C131.068 100.339 132.338 102.437 132.338 102.437C132.338 102.437 130.321 98.2414 129.948 96.773C129.576 95.3043 129.576 94.3955 129.576 94.3955H128.457Z" fill="#231F20"/>
<path fill-rule="evenodd" clip-rule="evenodd" d="M130.209 95.5442C130.209 95.5442 130.367 97.3183 131.004 98.6481C131.64 99.9784 133.151 102.195 133.151 102.195L131.64 97.835L130.209 95.5442Z" fill="#231F20"/>
<path fill-rule="evenodd" clip-rule="evenodd" d="M132.588 99.1121C132.588 99.1121 132.588 99.656 133.214 100.623C133.84 101.59 134.528 102.135 134.528 102.135C134.528 102.135 133.84 100.684 133.652 100.139C133.464 99.5957 133.401 99.3531 133.401 99.3531L132.588 99.1121Z" fill="#231F20"/>
<path fill-rule="evenodd" clip-rule="evenodd" d="M134.34 99.172C134.34 99.172 134.34 99.8371 134.778 100.805C135.216 101.772 135.716 102.377 135.716 102.377C135.716 102.377 135.091 100.442 134.966 99.9582C134.841 99.4743 134.841 98.8698 134.841 98.8698L134.34 99.172Z" fill="#231F20"/>
<path fill-rule="evenodd" clip-rule="evenodd" d="M135.342 98.5676C135.342 98.5676 135.404 99.7162 135.905 100.744C136.406 101.772 136.594 102.135 136.594 102.135L135.968 98.6279L135.342 98.5676" fill="#231F20"/>
<path d="M81.4485 141.048H81.4324L80.4205 141.491L80.1909 140.459L81.662 139.832H82.8251V144.801H81.4485V141.048" fill="#231F20"/>
<path d="M86.2996 140.742C85.9836 140.742 85.7304 141.025 85.7374 141.461C85.7374 141.812 85.9197 142.149 86.355 142.149C86.6236 142.149 86.7981 142.034 86.8775 141.912C86.9159 141.835 86.9326 141.751 86.9326 141.598C86.9402 141.208 86.7817 140.742 86.3077 140.742H86.2996ZM84.8039 143.807C84.9614 143.822 85.0732 143.822 85.3109 143.815C85.6665 143.807 86.0309 143.731 86.2996 143.585C86.6312 143.403 86.8457 143.119 86.9326 142.836L86.9159 142.829C86.7106 143.012 86.4019 143.111 85.9588 143.111C85.1116 143.111 84.3208 142.569 84.3208 141.552C84.3208 140.559 85.1677 139.749 86.3392 139.749C87.7792 139.749 88.3883 140.795 88.3883 141.904C88.3883 142.921 88.0717 143.67 87.4869 144.174C86.9562 144.633 86.2202 144.862 85.3109 144.877C85.1289 144.885 84.9299 144.87 84.8039 144.862V143.807" fill="#231F20"/>
<path d="M91.095 142.66V141.812C91.095 141.491 91.1198 141.17 91.1341 140.818H91.1026C90.9357 141.155 90.7939 141.476 90.604 141.82L90.1691 142.646L90.1615 142.66H91.095ZM91.095 144.801V143.685H88.863V142.791L90.6519 139.832H92.4401V142.66H93.0092V143.685H92.4401V144.801H91.095Z" fill="#231F20"/>
<path d="M93.5078 144.801V143.968L94.2193 143.363C95.2633 142.493 95.794 141.972 95.8019 141.469C95.8019 141.109 95.5568 140.849 95.0341 140.849C94.6064 140.849 94.2193 141.056 93.9355 141.254L93.5463 140.269C93.9418 139.986 94.5909 139.749 95.3191 139.749C96.5146 139.749 97.227 140.375 97.227 141.354C97.227 142.149 96.6412 142.791 96.0327 143.272L95.5256 143.654V143.67H97.3133V144.801H93.5078" fill="#231F20"/>
<path d="M118.036 136.815C118.188 137.224 118.479 137.469 118.806 137.355C119.108 137.25 119.187 136.898 119.026 136.465C118.895 136.114 118.62 135.804 118.272 135.924C117.91 136.051 117.904 136.465 118.036 136.815ZM119.809 136.17C120.134 137.041 119.644 137.662 118.984 137.892C118.263 138.143 117.538 137.879 117.252 137.111C116.963 136.337 117.304 135.663 118.099 135.386C118.85 135.124 119.54 135.45 119.809 136.17" fill="#231F20"/>
<path d="M121.825 133.995L122.071 134.551L121.374 134.841L122.161 136.608L121.413 136.918L120.626 135.151L119.928 135.442L119.682 134.886L121.825 133.995Z" fill="#231F20"/>
<path d="M123.986 135.286C124.067 135.257 124.124 135.23 124.233 135.175C124.482 135.054 124.693 134.862 124.577 134.641C124.473 134.443 124.235 134.449 123.891 134.617L123.686 134.719L123.986 135.286ZM123.477 134.312L123.664 134.22C123.954 134.076 124.101 133.911 124.012 133.741C123.934 133.593 123.759 133.569 123.468 133.712C123.373 133.759 123.311 133.801 123.232 133.845L123.477 134.312ZM122.31 133.807C122.474 133.696 122.858 133.467 123.221 133.288C123.617 133.094 124.397 132.762 124.678 133.297C124.832 133.588 124.669 133.858 124.458 134.015L124.464 134.029C124.842 133.912 125.168 133.985 125.331 134.293C125.667 134.933 124.795 135.433 124.318 135.668C123.993 135.827 123.638 135.973 123.482 136.027L122.31 133.807" fill="#231F20"/>
<path d="M126.939 132.414C126.836 132.251 126.588 132.022 126.269 132.213C125.977 132.386 126.024 132.716 126.12 132.904L126.939 132.414ZM126.416 133.358C126.611 133.626 126.982 133.587 127.307 133.393C127.545 133.252 127.717 133.108 127.863 132.934L128.244 133.334C128.076 133.562 127.826 133.771 127.524 133.951C126.768 134.402 126.064 134.237 125.633 133.564C125.285 133.017 125.251 132.205 126.025 131.743C126.746 131.313 127.367 131.692 127.706 132.225C127.779 132.34 127.83 132.449 127.853 132.503L126.416 133.358Z" fill="#231F20"/>
<path d="M129.194 129.672L129.569 130.157L128.959 130.597L130.151 132.141L129.497 132.611L128.306 131.067L127.695 131.507L127.321 131.021L129.194 129.672" fill="#231F20"/>
<path d="M132.723 129.919C132.663 130.062 132.497 130.278 132.268 130.48C131.641 131.03 130.892 131.011 130.341 130.426C129.825 129.879 129.791 129.09 130.512 128.457C130.67 128.317 130.869 128.19 131.039 128.125L131.352 128.64C131.252 128.673 131.12 128.74 130.961 128.88C130.644 129.158 130.643 129.557 130.937 129.859C131.257 130.2 131.668 130.175 131.962 129.916C132.103 129.792 132.193 129.671 132.248 129.553L132.723 129.919" fill="#231F20"/>
<path d="M132.807 126.103L133.286 126.495L132.794 127.054L134.311 128.301L133.783 128.901L132.265 127.654L131.773 128.214L131.295 127.822L132.807 126.103" fill="#231F20"/>
<path d="M135.348 126.182C135.403 126.119 135.438 126.067 135.504 125.966C135.654 125.739 135.736 125.471 135.52 125.337C135.326 125.217 135.125 125.338 134.917 125.652L134.793 125.84L135.348 126.182ZM134.399 125.59L134.511 125.42C134.688 125.155 134.728 124.94 134.561 124.837C134.417 124.748 134.253 124.812 134.078 125.078C134.02 125.165 133.988 125.232 133.944 125.308L134.399 125.59ZM133.128 125.725C133.212 125.55 133.423 125.165 133.641 124.834C133.881 124.472 134.381 123.804 134.903 124.128C135.188 124.303 135.189 124.617 135.088 124.856L135.102 124.864C135.367 124.58 135.686 124.482 135.988 124.669C136.615 125.056 136.125 125.913 135.835 126.348C135.639 126.645 135.408 126.945 135.301 127.068L133.128 125.725" fill="#231F20"/>
<path d="M136.29 122.168C136.109 122.09 135.77 122.034 135.616 122.365C135.476 122.667 135.709 122.914 135.895 123.018L136.29 122.168ZM136.405 123.234C136.722 123.348 137.007 123.114 137.163 122.779C137.276 122.533 137.334 122.32 137.355 122.097L137.903 122.22C137.896 122.501 137.811 122.81 137.667 123.121C137.302 123.906 136.625 124.151 135.878 123.827C135.271 123.564 134.77 122.911 135.143 122.108C135.489 121.362 136.222 121.339 136.814 121.596C136.94 121.651 137.046 121.713 137.096 121.746L136.405 123.234Z" fill="#231F20"/>
<path d="M136.093 119.789L137.007 120.03L137.225 119.262L136.31 119.02L136.524 118.262L139.051 118.93L138.835 119.688L137.833 119.423L137.616 120.191L138.618 120.456L138.403 121.214L135.878 120.547L136.093 119.789Z" fill="#231F20"/>
<path d="M136.76 116.74L137.703 116.841L137.794 116.05L136.851 115.948L136.942 115.166L139.546 115.447L139.454 116.229L138.422 116.117L138.33 116.909L139.363 117.02L139.272 117.802L136.669 117.521L136.76 116.74" fill="#231F20"/>
<path d="M138.256 113.687C138.705 113.672 139.036 113.481 139.025 113.145C139.013 112.835 138.691 112.653 138.215 112.669C137.83 112.681 137.438 112.839 137.451 113.195C137.462 113.568 137.87 113.7 138.256 113.687V113.687ZM138.166 111.857C139.123 111.827 139.584 112.469 139.609 113.146C139.635 113.886 139.151 114.471 138.305 114.499C137.454 114.526 136.894 114.006 136.866 113.189C136.839 112.418 137.372 111.883 138.166 111.857Z" fill="#231F20"/>
<path d="M138.989 109.014C139.081 109.141 139.178 109.392 139.228 109.689C139.365 110.497 138.94 111.093 138.131 111.221C137.376 111.341 136.671 110.939 136.514 110.009C136.479 109.805 136.477 109.574 136.514 109.401L137.131 109.429C137.105 109.528 137.092 109.671 137.126 109.876C137.196 110.284 137.541 110.502 137.963 110.43C138.435 110.355 138.636 110.009 138.573 109.631C138.541 109.447 138.485 109.309 138.412 109.2L138.989 109.014Z" fill="#231F20"/>
<path d="M135.667 106.891L136.264 106.701L136.501 107.399L138.393 106.796L138.648 107.543L136.756 108.146L136.995 108.843L136.4 109.033L135.667 106.891Z" fill="#231F20"/>
<path d="M137.073 104.935C137.054 104.864 137.029 104.795 136.981 104.685C136.877 104.448 136.668 104.196 136.377 104.315C136.08 104.437 136.147 104.774 136.245 104.998C136.288 105.093 136.326 105.156 136.373 105.222L137.073 104.935ZM135.152 105.715L135.867 105.422C135.809 105.328 135.734 105.196 135.678 105.067C135.439 104.524 135.385 103.871 136.027 103.609C136.333 103.484 136.597 103.528 136.818 103.662C137.16 103.871 137.416 104.312 137.57 104.664C137.688 104.931 137.79 105.205 137.868 105.459L135.468 106.439L135.152 105.715" fill="#231F20"/>
<path d="M50.3089 148.752L49.794 150.303L51.3499 150.784L51.8639 149.234L52.8059 149.525L51.4696 153.56L50.5276 153.268L51.0861 151.581L49.5308 151.099L48.9714 152.788L48.03 152.497L49.3657 148.461L50.3089 148.752" fill="#231F20"/>
<path d="M55.6514 152.407L55.5123 151.48C55.4712 151.221 55.4403 150.899 55.413 150.64L55.4006 150.639C55.2988 150.879 55.1877 151.188 55.0807 151.42L54.6906 152.275L55.6514 152.407ZM54.4447 152.964L53.9755 153.998L52.9626 153.859L54.9066 149.847L56.1944 150.025L56.925 154.407L55.8634 154.26L55.6868 153.137L54.4447 152.964" fill="#231F20"/>
<path d="M58.8139 150.203L59.5254 151.701C59.6638 151.991 59.761 152.244 59.878 152.497L59.897 152.496C59.9401 152.312 60.0046 152.025 60.0909 151.656L60.4922 150.126L61.5387 150.08L60.8157 152.209C60.5803 152.875 60.3459 153.528 60.0324 153.931C59.7629 154.291 59.4094 154.52 58.8948 154.544C58.667 154.555 58.5371 154.536 58.4044 154.498L58.4387 153.728C58.5235 153.742 58.6222 153.751 58.7655 153.744C59.0711 153.73 59.2689 153.519 59.3446 153.328C59.3734 153.251 59.3521 153.195 59.3149 153.127L57.6951 150.253L58.8139 150.203" fill="#231F20"/>
<path d="M63.1105 149.756L63.4982 151.481L63.5863 151.463L64.3777 149.491L65.5526 149.245L64.471 151.4C65.0532 151.412 65.3839 151.73 65.6744 152.19C65.9252 152.601 66.166 153.019 66.4625 153.389L65.4181 153.607C65.2095 153.355 65.0538 153.053 64.8848 152.767C64.6334 152.331 64.3559 152.015 63.8353 152.125L63.6499 152.163L64.0388 153.896L63.0844 154.094L62.157 149.955L63.1105 149.756Z" fill="#231F20"/>
<path d="M69.1879 150.6L68.6182 149.843C68.4574 149.631 68.2744 149.361 68.1254 149.144L68.1136 149.149C68.1391 149.407 68.1893 149.73 68.2075 149.985L68.2744 150.916L69.1879 150.6ZM68.3898 151.636L68.4737 152.762L67.5118 153.094L67.2937 148.671L68.5183 148.248L71.2803 151.794L70.2698 152.142L69.5723 151.229L68.3898 151.636" fill="#231F20"/>
<path d="M106.453 147.02C106.797 146.982 107.285 147.005 107.845 147.245C108.719 147.621 109.041 148.268 108.779 148.837C108.555 149.326 108.071 149.496 107.556 149.406L107.551 149.417C108.018 149.702 108.3 150.221 108.061 150.739C107.661 151.606 106.626 151.52 105.877 151.198C105.459 151.019 105.047 150.739 104.798 150.412L105.301 149.815C105.437 149.984 105.787 150.306 106.163 150.467C106.621 150.663 106.988 150.594 107.135 150.273C107.331 149.847 106.907 149.562 106.525 149.398L106.145 149.234L106.444 148.584L106.825 148.749C107.235 148.925 107.627 148.879 107.77 148.569C107.886 148.316 107.745 148.049 107.358 147.884C107.049 147.75 106.648 147.723 106.371 147.735L106.453 147.02" fill="#231F20"/>
<path d="M111.196 148.578L110.705 150.136L112.268 150.595L112.759 149.037L113.706 149.316L112.427 153.371L111.481 153.093L112.016 151.396L110.453 150.936L109.917 152.633L108.971 152.353L110.251 148.299L111.196 148.578Z" fill="#231F20"/>
<path d="M116.479 152.362L116.386 151.43C116.359 151.168 116.343 150.845 116.328 150.586L116.315 150.584C116.203 150.819 116.076 151.122 115.958 151.35L115.527 152.186L116.479 152.362ZM115.246 152.864L114.728 153.875L113.723 153.689L115.86 149.77L117.139 150.007L117.656 154.418L116.601 154.223L116.48 153.093L115.246 152.864Z" fill="#231F20"/>
<path d="M120.318 150.401L120.242 152.028L121.874 152.099L121.951 150.472L122.939 150.515L122.742 154.749L121.753 154.706L121.836 152.935L120.204 152.864L120.121 154.636L119.132 154.593L119.33 150.358L120.318 150.401Z" fill="#231F20"/>
<path d="M124.896 150.355L125.085 151.6C125.188 152.273 125.27 152.941 125.323 153.506L125.342 153.502C125.499 152.978 125.705 152.383 125.894 151.898L126.576 150.116L127.582 149.972L128.223 154.167L127.321 154.295L127.131 153.057C127.032 152.409 126.958 151.835 126.932 151.28L126.912 151.282C126.789 151.809 126.59 152.403 126.399 152.882L125.748 154.52L124.633 154.678L123.991 150.484L124.896 150.355" fill="#231F20"/>
<path d="M131.902 151.05L130.4 151.62L130.779 152.557L132.459 151.92L132.758 152.651L130.157 153.638L128.552 149.692L131.067 148.738L131.365 149.47L129.771 150.074L130.103 150.894L131.608 150.324L131.902 151.05" fill="#231F20"/>
<path fill-rule="evenodd" clip-rule="evenodd" d="M88.7631 131.565C86.3552 127.901 83.4405 127.869 76.6765 127.796L75.3066 127.78C75.0876 127.776 74.8677 127.775 74.6457 127.775C73.1939 127.775 71.6607 127.833 70.1781 127.887C68.681 127.944 67.1332 128.001 65.6545 128.001C58.8293 128.001 54.1449 126.767 53.4722 120.754L53.4556 49.0671H124.811L124.707 117.042L124.71 117.068C125.003 121.026 124.369 123.756 122.771 125.415C120.731 127.53 117.19 127.822 113.666 127.822C113.155 127.822 112.633 127.815 112.103 127.803C111.453 127.789 110.75 127.784 110.013 127.784C109.057 127.784 108.043 127.793 107.015 127.801C105.964 127.811 104.897 127.82 103.863 127.82C103.154 127.82 102.462 127.815 101.8 127.803L101.273 127.794C100.176 127.774 99.1693 127.756 98.2452 127.756C93.3085 127.756 90.5713 128.342 88.7631 131.565Z" fill="#113D76"/>
<path fill-rule="evenodd" clip-rule="evenodd" d="M63.1834 74.9259L53.1482 74.8841V70.8601L63.1834 70.8905L68.3218 75.1813L73.4584 70.901H83.8625L89.1315 75.1813L94.2675 70.9016L104.527 70.8814L109.649 75.1424L114.669 70.8814L125.063 70.8809V74.9359L114.698 74.9271L109.65 79.1875L104.527 74.9265L94.2675 74.9464L89.1315 79.2258L83.8625 74.9464H73.4584L68.3218 79.2258L63.1834 74.9259" fill="#BC2645"/>
<path fill-rule="evenodd" clip-rule="evenodd" d="M63.1834 71.5339L53.1482 71.4926V67.4677L63.1834 67.4987L68.3218 71.7893L73.4584 67.5093H83.8625L89.1315 71.7893L94.2675 67.5096L104.527 67.49L109.649 71.7504L114.669 67.49L125.063 67.4891V71.5438L114.698 71.5353L109.65 75.7954L104.527 71.5353L94.2675 71.5543L89.1315 75.8344L83.8625 71.5543H73.4584L68.3218 75.8344L63.1834 71.5339" fill="#BC2645"/>
<path fill-rule="evenodd" clip-rule="evenodd" d="M63.1834 68.1447L53.1482 68.1038V64.1596L63.1834 64.1904L68.3218 68.3949L73.4584 64.2006H83.8625L89.1315 68.3949L94.2675 64.2006L104.527 64.1813L109.649 68.3568L114.669 64.1813L125.063 64.1807V68.1541L114.698 68.1462L109.65 72.3209L104.527 68.1456L94.2675 68.1643L89.1315 72.3589L83.8625 68.1643H73.4584L68.3218 72.3589L63.1834 68.1447" fill="white"/>
<path d="M76.6806 127.446C83.1696 127.517 86.2824 127.55 88.7409 130.906C90.637 127.962 93.4859 127.406 98.2451 127.406C99.1338 127.406 111.55 127.611 112.992 127.641C113.52 127.654 120.164 127.779 122.109 125.762C123.635 124.177 124.635 120.948 124.348 117.093L124.346 117.042L124.448 49.1687H53.8177L53.8359 120.754C54.531 126.964 58.281 127.74 65.3543 127.74C66.8157 127.74 76.6806 127.446 76.6806 127.446ZM88.7866 132.255L88.4571 131.752C86.1546 128.248 67.4042 128.593 65.9382 128.754C56.9311 129.74 53.8141 127.065 53.1123 120.792L53.0935 48.7173H125.172L125.069 117.042C125.372 121.103 125.166 124.339 123.495 126.073C121.361 128.287 117.929 128.637 114.324 128.637C113.811 128.637 106.602 128.637 106.602 128.637C104.861 128.653 91.1285 128.084 89.0804 131.732L88.7866 132.255" fill="white"/>
<path d="M126.361 47.2801H51.8359L51.8535 121.814C52.6162 128.848 58.4388 129.954 65.0644 129.954C68.1005 129.954 71.3057 129.721 74.2676 129.721C74.4911 129.721 74.7143 129.722 74.9348 129.725C83.6818 129.838 86.2109 129.578 88.7824 134.473C90.5052 130.291 93.147 129.701 98.4262 129.701C99.5169 129.701 100.72 129.725 102.05 129.749C102.733 129.762 103.446 129.766 104.176 129.766C106.268 129.766 108.492 129.729 110.471 129.729C111.219 129.729 111.934 129.735 112.594 129.749C113.143 129.761 113.682 129.769 114.212 129.769C121.697 129.769 127.017 128.28 126.255 117.929L126.361 47.2801ZM124.878 48.719L124.773 117.927V117.98L124.777 118.033C125.06 121.896 124.477 124.529 122.987 126.082C121.457 127.678 118.914 128.329 114.212 128.329C113.729 128.329 113.21 128.323 112.628 128.31C112.011 128.297 111.306 128.289 110.471 128.289C109.49 128.289 108.451 128.3 107.397 128.308C106.322 128.317 105.232 128.327 104.176 128.327C103.385 128.327 102.697 128.322 102.078 128.31L101.543 128.301C100.431 128.281 99.3828 128.261 98.4262 128.261C94.2286 128.261 90.9293 128.539 88.6861 131.602C86.1191 128.409 82.8277 128.373 76.356 128.302C75.9068 128.298 75.4394 128.293 74.9545 128.285C74.7273 128.283 74.4984 128.282 74.2676 128.282C72.7674 128.282 71.1897 128.34 69.6652 128.397C68.1408 128.455 66.5637 128.514 65.0644 128.514C57.0883 128.514 53.8992 126.676 53.3355 121.737L53.3183 48.719H124.878" fill="#231F20"/>
<path fill-rule="evenodd" clip-rule="evenodd" d="M104.675 103.656L104.433 100.626L107.732 98.5275L105.882 94.1767L101.86 95.1086L99.9288 92.7777L101.699 89.4362L97.3549 86.4842L94.5396 89.2812L91.7237 88.4263L91.2409 84.6191H85.8511L85.4482 88.4263L82.7147 89.1258L80.1402 86.251L75.394 89.2033L77.0835 92.6226L75.3128 94.7203L71.534 93.7098L69.4411 98.5275L72.6592 100.626L72.2573 103.345L68.5566 104.744L69.5213 109.406L79.0143 109.484L80.9507 109.525C79.6219 107.881 78.822 105.805 78.822 103.54C78.822 98.2235 83.2032 93.9131 88.6079 93.9131C94.0108 93.9131 98.3926 98.2235 98.3926 103.54C98.3926 105.954 97.4821 108.155 95.9907 109.844L97.2738 109.872L107.329 109.639L108.294 105.288L104.675 103.656" fill="#231F20"/>
<path fill-rule="evenodd" clip-rule="evenodd" d="M103.94 104.072L103.645 100.443L106.811 98.3596L105.38 95.0709L101.5 95.6934L99.1952 92.8652L100.633 89.4363L97.5565 87.4643L94.6952 90.067L91.1687 88.9474L90.4039 85.321L86.7118 85.3218L85.8725 89.0088L82.3396 89.9275L79.6442 87.2958L76.5557 89.2481L77.8996 92.8137L75.4435 95.5009L71.6917 94.7464L70.2354 98.0235L73.3885 100.303L72.8863 103.882L69.335 105.269L70.0095 108.775L73.8061 108.945L79.0024 108.992C78.1229 107.465 77.6195 105.708 77.6195 103.837C77.6195 97.9731 82.5401 93.2192 88.6115 93.2192C94.6828 93.2192 99.604 97.9731 99.604 103.837C99.604 105.779 99.0604 107.599 98.1184 109.165L102.968 109.208L106.8 109.189L107.517 105.69L103.94 104.072" fill="#F9AD5E"/>
<path d="M78.0988 109.115C77.1326 107.599 76.409 105.591 76.409 104.103C76.409 97.5299 81.7788 92.1557 88.5819 92.1557C95.3862 92.1557 100.927 97.9319 99.9247 104.433C99.5018 107.172 99.998 107.832 99.1538 109.348L100.662 109.231C101.141 107.906 101.071 106.667 101.131 104.278C101.31 97.1925 95.9529 91.5489 88.6161 91.5489C81.2803 91.5489 75.7454 97.1326 75.7454 104.219C75.7454 105.7 76.2318 107.789 76.711 109.115H78.0988" fill="#231F20"/>
<path fill-rule="evenodd" clip-rule="evenodd" d="M99.742 123.772C97.6493 123.988 94.1413 123.978 92.3383 123.897C90.537 123.813 90.5476 124.425 89.7307 124.964C89.2461 125.284 88.8166 125.405 88.5452 125.452C88.3759 125.452 87.8041 125.416 87.1196 124.964C86.3033 124.425 86.3151 123.813 84.5123 123.897C82.7105 123.979 79.2025 123.988 77.1089 123.772C74.8013 123.533 72.7419 122.642 72.7419 122.642L73.4289 124.839C73.4289 124.839 74.502 125.575 76.6907 125.575C78.8796 125.575 79.0392 125.358 82.1629 125.047C85.0285 124.761 84.8137 124.87 85.7357 125.171C86.3723 125.378 86.7864 126.176 87.3455 126.384C87.6136 126.483 87.9271 126.522 88.1821 126.537V126.539C88.1821 126.539 88.2636 126.543 88.385 126.544H88.4235H88.4635C88.5843 126.543 88.664 126.539 88.664 126.539V126.537C88.9214 126.522 89.2367 126.483 89.506 126.384C90.0642 126.176 90.4786 125.378 91.1155 125.171C92.0372 124.87 91.8231 124.761 94.688 125.047C97.8105 125.358 97.9719 125.575 100.161 125.575C102.35 125.575 103.422 124.839 103.422 124.839L104.11 122.642C104.11 122.642 102.048 123.533 99.742 123.772" fill="#231F20"/>
<path fill-rule="evenodd" clip-rule="evenodd" d="M88.4072 106.764C88.4072 106.764 90.1179 104.463 93.0144 103.717C95.9112 102.971 97.1339 103.344 98.745 103.033C100.354 102.722 101.641 101.727 101.641 101.727V104.649L104.474 104.401L104.087 106.826L106.985 106.764L104.216 122.249C104.216 122.249 100.549 123.568 97.0085 123.568C93.4675 123.568 92.1306 123.373 91.036 123.684C89.9416 123.995 88.5017 125.024 88.5017 125.024L88.4072 106.764" fill="#231F20"/>
<path fill-rule="evenodd" clip-rule="evenodd" d="M100.417 118.87C100.417 118.87 98.6149 120.196 95.4606 120.134C92.3064 120.072 90.954 120.445 90.1181 121.005C89.2806 121.564 88.8296 122.559 88.8296 122.559L89.1516 106.889C89.1516 106.889 90.7611 104.649 93.4001 104.09C96.0403 103.53 96.5768 104.09 98.4443 103.903C99.2231 103.826 101.062 102.722 101.062 102.722L100.417 118.87Z" fill="white"/>
<path fill-rule="evenodd" clip-rule="evenodd" d="M103.701 105.085L101.577 105.271L101.019 119.657C101.019 119.657 100.075 119.988 97.8861 120.404C96.0013 120.76 93.0791 120.238 91.4053 120.776C89.1906 121.49 88.9165 123.222 88.9165 123.222C88.9165 123.222 90.5457 122.04 94.0225 121.854C97.499 121.667 97.6708 122.102 99.4739 121.688C100.92 121.356 102.006 120.611 102.006 120.611C102.006 120.611 102.306 115.511 102.435 113.604C102.565 111.698 103.182 108.167 103.315 107.449C103.636 105.707 103.701 105.085 103.701 105.085Z" fill="white"/>
<path fill-rule="evenodd" clip-rule="evenodd" d="M106.298 107.179L103.938 107.344C103.938 107.344 102.992 112.32 102.907 114.143C102.837 115.644 102.565 121.067 102.565 121.067C102.565 121.067 101.008 121.734 99.3883 122.062C97.5431 122.434 95.7191 121.896 93.3357 122.145C90.9541 122.394 88.9587 123.513 88.9587 123.513C88.9587 123.513 92.597 122.593 96.5127 122.891C100.868 123.223 103.68 121.772 103.68 121.772L106.298 107.179" fill="white"/>
<path fill-rule="evenodd" clip-rule="evenodd" d="M106.152 107.512C106.152 107.512 104.6 107.408 104.066 107.634C103.531 107.86 103.421 107.925 103.421 107.925L103.437 108.83C103.437 108.83 103.999 108.141 104.747 107.925C105.496 107.71 106.152 107.512 106.152 107.512" fill="#231F20"/>
<path fill-rule="evenodd" clip-rule="evenodd" d="M105.948 108.324C105.948 108.324 104.342 108.196 103.808 108.422C103.275 108.649 103.28 109.107 103.28 109.107L103.232 109.643C103.232 109.643 103.794 108.954 104.543 108.739C105.291 108.523 105.948 108.324 105.948 108.324" fill="#231F20"/>
<path fill-rule="evenodd" clip-rule="evenodd" d="M104.898 109.201C104.898 109.201 104.343 109.324 103.93 109.481C103.516 109.637 103.129 109.981 103.129 109.981L102.965 110.486C102.965 110.486 103.483 110.064 103.922 109.805C104.363 109.546 104.898 109.201 104.898 109.201" fill="#231F20"/>
<path fill-rule="evenodd" clip-rule="evenodd" d="M103.122 105.52L101.318 105.603L101.276 106.1L103.122 105.52Z" fill="#231F20"/>
<path fill-rule="evenodd" clip-rule="evenodd" d="M102.864 106.267H101.361L101.276 106.681L102.864 106.267Z" fill="#231F20"/>
<path fill-rule="evenodd" clip-rule="evenodd" d="M102.262 106.889L101.147 107.095L101.189 107.717L102.262 106.889Z" fill="#231F20"/>
<path fill-rule="evenodd" clip-rule="evenodd" d="M88.5622 116.282L88.4498 106.806C88.4498 106.806 86.7325 104.463 83.8357 103.717C80.9395 102.971 79.7164 103.344 78.1063 103.033C76.4974 102.722 75.2095 101.727 75.2095 101.727V104.649L72.3776 104.401L72.7631 106.826L69.8669 106.764L72.6953 122.402C72.6953 122.402 76.0927 123.568 79.6338 123.568C83.1736 123.568 84.8734 123.489 85.9677 123.8C87.0632 124.111 88.5019 125.141 88.5019 125.141L88.5622 116.282" fill="#231F20"/>
<path fill-rule="evenodd" clip-rule="evenodd" d="M76.4329 118.87C76.4329 118.87 78.2354 120.196 81.3896 120.134C84.5445 120.072 85.8963 120.445 86.7325 121.005C87.5703 121.564 88.021 122.559 88.021 122.559L87.6999 106.889C87.6999 106.889 86.0895 104.649 83.4496 104.09C80.8105 103.53 80.2732 104.09 78.4062 103.903C77.6278 103.826 75.7893 102.722 75.7893 102.722L76.4329 118.87" fill="white"/>
<path fill-rule="evenodd" clip-rule="evenodd" d="M73.1489 105.085L75.2743 105.271L75.8316 119.657C75.8316 119.657 76.7757 119.989 78.9652 120.404C80.8501 120.76 83.7729 120.238 85.4451 120.776C87.6607 121.49 87.9352 123.222 87.9352 123.222C87.9352 123.222 86.3032 122.041 82.8276 121.854C79.3508 121.668 79.1788 122.103 77.3769 121.688C75.9309 121.356 74.8442 120.611 74.8442 120.611C74.8442 120.611 74.5443 115.511 74.4159 113.604C74.2853 111.698 73.6684 108.167 73.5351 107.449C73.2134 105.707 73.1489 105.085 73.1489 105.085" fill="white"/>
<path fill-rule="evenodd" clip-rule="evenodd" d="M70.5525 107.179L72.9129 107.344C72.9129 107.344 73.8576 112.32 73.9439 114.143C74.0135 115.644 74.2864 121.067 74.2864 121.067C74.2864 121.067 75.8421 121.734 77.4625 122.062C79.3077 122.434 81.1313 121.896 83.5138 122.145C85.896 122.394 87.892 123.513 87.892 123.513C87.892 123.513 84.2538 122.593 80.3375 122.891C75.9817 123.223 73.1712 121.772 73.1712 121.772L70.5525 107.179" fill="white"/>
<path fill-rule="evenodd" clip-rule="evenodd" d="M100.632 124.259C99.3443 124.507 96.4681 124.55 94.2803 124.425C92.0905 124.301 91.2357 124.053 90.4613 124.922C89.7495 125.718 88.4498 125.751 88.4498 125.751C88.4498 125.751 87.1017 125.719 86.3908 124.922C85.6145 124.054 84.7598 124.301 82.5708 124.425C80.3822 124.55 77.506 124.507 76.2175 124.259C74.9308 124.01 73.4294 123.388 73.4294 123.388L73.8262 124.642C73.8262 124.642 75.2958 125.316 77.1413 125.233C78.9865 125.15 81.4435 124.746 83.4186 124.704C85.3922 124.663 85.9186 124.839 86.4759 125.337C87.0338 125.835 87.3064 126.152 87.8595 126.228C88.4234 126.306 88.8481 126.261 88.9783 126.251C89.5365 126.21 89.8176 125.835 90.3749 125.336C90.9322 124.839 91.4587 124.663 93.4335 124.704C95.408 124.746 97.8641 125.15 99.7098 125.233C101.555 125.316 103.026 124.642 103.026 124.642L103.421 123.388C103.421 123.388 101.919 124.01 100.632 124.259" fill="white"/>
<path fill-rule="evenodd" clip-rule="evenodd" d="M70.6987 107.512C70.6987 107.512 72.2516 107.408 72.7859 107.634C73.3193 107.861 73.4295 107.925 73.4295 107.925L73.4147 108.83C73.4147 108.83 72.8513 108.141 72.1026 107.925C71.3554 107.71 70.6987 107.512 70.6987 107.512Z" fill="#231F20"/>
<path fill-rule="evenodd" clip-rule="evenodd" d="M70.9026 108.324C70.9026 108.324 72.5088 108.196 73.0434 108.422C73.5771 108.649 73.5704 109.107 73.5704 109.107L73.618 109.643C73.618 109.643 73.0552 108.954 72.3071 108.739C71.5599 108.523 70.9026 108.324 70.9026 108.324" fill="#231F20"/>
<path fill-rule="evenodd" clip-rule="evenodd" d="M71.9517 109.201C71.9517 109.201 72.5078 109.324 72.9218 109.481C73.3352 109.637 73.7208 109.981 73.7208 109.981L73.8853 110.486C73.8853 110.486 73.3673 110.064 72.9275 109.805C72.4875 109.546 71.9517 109.201 71.9517 109.201" fill="#231F20"/>
<path fill-rule="evenodd" clip-rule="evenodd" d="M73.73 105.52L75.5312 105.603L75.5745 106.1L73.73 105.52Z" fill="#231F20"/>
<path fill-rule="evenodd" clip-rule="evenodd" d="M73.9863 106.267H75.4889L75.5743 106.681L73.9863 106.267Z" fill="#231F20"/>
<path fill-rule="evenodd" clip-rule="evenodd" d="M74.5876 106.889L75.7031 107.096L75.6601 107.717L74.5876 106.889Z" fill="#231F20"/>
<path d="M43.685 106.616L41.2922 105.745L41.5733 105.022L43.3945 105.684L43.6711 104.975L41.8495 104.312L42.1306 103.594L44.5246 104.465L43.685 106.616Z" fill="#231F20"/>
<path d="M41.8549 107.507C41.7955 107.49 41.744 107.479 41.6907 107.474C41.4708 107.463 41.2624 107.586 41.1958 107.8C41.0958 108.119 41.3118 108.388 41.727 108.51C42.1169 108.624 42.4646 108.542 42.57 108.213C42.6351 108.005 42.5315 107.774 42.3219 107.66C42.2853 107.638 42.2368 107.619 42.1926 107.606L41.8549 107.507ZM42.6627 106.941C42.9834 107.035 43.2566 107.104 43.491 107.162L43.2887 107.801L42.9386 107.735L42.9368 107.745C43.1361 107.994 43.1918 108.306 43.0834 108.649C42.9195 109.166 42.308 109.494 41.5274 109.265C40.636 109.003 40.3871 108.334 40.5521 107.806C40.6433 107.521 40.8329 107.333 41.0277 107.274L41.0295 107.265L39.8125 106.908L40.0439 106.172L42.6627 106.941" fill="#231F20"/>
<path d="M41.2053 110.422C40.7764 110.327 40.4157 110.43 40.34 110.75C40.2706 111.046 40.5293 111.294 40.9824 111.393C41.3501 111.473 41.7602 111.418 41.8395 111.078C41.9228 110.723 41.5721 110.502 41.2053 110.422ZM40.8218 112.17C39.9105 111.972 39.6376 111.255 39.7884 110.609C39.9541 109.904 40.5605 109.467 41.3661 109.643C42.1766 109.821 42.5719 110.445 42.3896 111.224C42.2181 111.958 41.5772 112.336 40.8218 112.17Z" fill="#231F20"/>
<path d="M41.3423 113.957C41.2938 113.575 40.9967 113.369 40.6017 113.325C40.1965 113.28 39.8688 113.422 39.7355 113.779L41.3423 113.957ZM39.6528 114.472C39.7025 114.849 39.9893 115.058 40.3946 115.104C40.785 115.147 41.1169 115.011 41.256 114.65L39.6528 114.472ZM42.8491 114.842L41.7748 114.713C41.6134 115.402 41.1051 115.946 40.2946 115.856C39.4683 115.764 39.1152 115.104 39.1388 114.42L38.155 114.32L38.2401 113.602L39.2215 113.722C39.356 113.04 39.8651 112.48 40.6768 112.571C41.5068 112.663 41.8629 113.308 41.8523 114.009L42.9355 114.125L42.8491 114.842Z" fill="#231F20"/>
<path d="M40.6687 117.963C40.8622 117.955 41.1824 117.86 41.1645 117.507C41.1509 117.183 40.8362 117.066 40.6263 117.054L40.6687 117.963ZM40.0826 117.083C39.7549 117.118 39.6116 117.443 39.6289 117.801C39.6413 118.064 39.688 118.275 39.771 118.478L39.2367 118.602C39.1164 118.355 39.0486 118.049 39.0343 117.716C38.9941 116.877 39.4732 116.376 40.2731 116.341C40.9219 116.313 41.6561 116.67 41.6958 117.529C41.7336 118.326 41.1043 118.658 40.4724 118.685C40.3358 118.691 40.2141 118.681 40.1565 118.674L40.0826 117.083" fill="#231F20"/>
<path d="M39.853 121.404C39.7525 121.289 39.6353 121.052 39.5595 120.767C39.3551 119.994 39.7134 119.378 40.4903 119.186C41.2148 119.006 41.9348 119.338 42.1713 120.229C42.2228 120.425 42.2449 120.649 42.2252 120.821L41.6231 120.845C41.6391 120.747 41.6391 120.607 41.5864 120.411C41.4829 120.019 41.1267 119.836 40.7226 119.942C40.2719 120.054 40.1062 120.408 40.2032 120.77C40.2495 120.946 40.3155 121.076 40.3961 121.176L39.853 121.404" fill="#231F20"/>
<path d="M40.8633 123.774C40.7449 123.674 40.5926 123.457 40.4735 123.188C40.1488 122.453 40.4066 121.792 41.1432 121.488C41.8299 121.203 42.5955 121.426 42.9693 122.272C43.0517 122.457 43.1089 122.676 43.1168 122.848L42.5238 122.962C42.5256 122.862 42.5038 122.723 42.4211 122.537C42.256 122.165 41.8762 122.037 41.4927 122.2C41.0645 122.377 40.9575 122.751 41.1084 123.095C41.1841 123.263 41.2698 123.381 41.3649 123.468L40.8633 123.774" fill="#231F20"/>
<path d="M43.7165 123.769L43.0493 124.167C42.7018 124.374 42.4471 124.503 42.143 124.662L42.1482 124.681C42.4611 124.631 42.6658 124.586 42.9263 124.55L44.1212 124.4L44.6327 125.199L42.4583 126.498L42.0612 125.88L42.724 125.484C43.0617 125.282 43.2155 125.215 43.688 124.962L43.6762 124.945C43.3882 125.004 43.2137 125.037 42.9532 125.074C42.5652 125.122 42.0855 125.189 41.6536 125.244L41.145 124.449L43.32 123.149L43.7165 123.769" fill="#231F20"/>
<path d="M44.4335 126.945C44.0957 127.217 43.9604 127.556 44.1778 127.808C44.378 128.041 44.74 127.994 45.0962 127.705C45.3854 127.473 45.5884 127.125 45.357 126.857C45.1156 126.579 44.7215 126.713 44.4335 126.945V126.945ZM45.638 128.301C44.9199 128.88 44.1654 128.653 43.7265 128.145C43.2492 127.591 43.258 126.861 43.8916 126.35C44.5295 125.836 45.2831 125.912 45.8113 126.525C46.3104 127.102 46.232 127.823 45.638 128.301" fill="#231F20"/>
<path d="M47.4907 128.351L46.8601 129.006L47.4492 129.537L48.0804 128.882L48.6626 129.405L46.9198 131.213L46.3364 130.69L47.0288 129.972L46.4406 129.442L45.7491 130.16L45.167 129.636L46.9092 127.828L47.4907 128.351Z" fill="#231F20"/>
<path d="M49.4198 131.593C49.0833 131.354 48.7632 131.246 48.5826 131.482C48.4627 131.641 48.513 131.796 48.6568 131.897C48.8116 132.008 49.0245 132.003 49.163 131.906C49.1957 131.88 49.2281 131.845 49.2553 131.809L49.4198 131.593ZM49.6891 132.493C49.547 132.68 49.4156 132.869 49.3583 132.997L48.7804 132.587L48.8946 132.361L48.881 132.352C48.6259 132.415 48.3503 132.351 48.1053 132.177C47.6888 131.881 47.6634 131.411 47.9048 131.094C48.2988 130.577 48.9643 130.675 49.693 131.191L49.7121 131.167C49.7954 131.058 49.8511 130.866 49.5352 130.64C49.3247 130.491 49.0485 130.402 48.8513 130.387L49.037 129.905C49.2393 129.929 49.5991 130.028 49.9735 130.294C50.6616 130.782 50.5786 131.325 50.2191 131.797L49.6891 132.493" fill="#231F20"/>
<path d="M53.2828 132.384L52.0073 134.526L51.3176 134.143L52.2896 132.509L51.8092 132.242L51.5748 132.636C51.2643 133.157 50.9839 133.486 50.6207 133.54C50.3935 133.606 50.1591 133.564 49.8511 133.392L50.0819 132.832C50.1967 132.874 50.3105 132.885 50.3984 132.857C50.6016 132.801 50.7394 132.609 50.9527 132.25L51.4724 131.379L53.2828 132.384" fill="#231F20"/>
<path d="M54.5036 132.922L54.1902 133.617C54.0257 133.978 53.8921 134.225 53.734 134.521L53.7519 134.534C53.979 134.321 54.1211 134.172 54.3137 133.999L55.2081 133.22L56.0992 133.596L55.0746 135.859L54.3849 135.568L54.6966 134.879C54.8556 134.526 54.9425 134.387 55.1821 133.92L55.1627 133.911C54.961 134.119 54.8368 134.242 54.6439 134.415C54.3534 134.667 53.9978 134.985 53.6762 135.268L52.7893 134.894L53.814 132.631L54.5036 132.922" fill="#231F20"/>
<path d="M56.5288 134.859L56.872 135.022C57.1619 135.16 57.3512 135.132 57.4157 135.005C57.4805 134.879 57.3906 134.723 57.1376 134.603C56.9359 134.507 56.6867 134.467 56.4768 134.48L56.5443 134.017C56.8981 133.987 57.2736 134.082 57.5929 134.234C58.0106 134.432 58.4449 134.814 58.2147 135.267C58.0657 135.556 57.7231 135.579 57.4729 135.522L57.4636 135.54C57.7337 135.708 57.9651 136.009 57.7958 136.34C57.519 136.883 56.7766 136.705 56.3129 136.484C55.9894 136.331 55.6971 136.102 55.5254 135.846L55.8916 135.491C56.0052 135.646 56.2329 135.84 56.4701 135.957C56.7754 136.102 56.9671 136.059 57.031 135.931C57.124 135.75 56.9653 135.591 56.6612 135.445L56.318 135.283L56.5288 134.859" fill="#231F20"/>
<path d="M59.2032 135.056L60.0797 135.551L59.8314 136.493C59.7905 136.64 59.722 136.895 59.6515 137.112L59.6639 137.119C59.7923 136.998 60.0077 136.804 60.1945 136.634L60.8975 136.011L61.7653 136.5L60.6122 138.712L59.9746 138.353L60.455 137.477C60.5607 137.291 60.7352 136.973 60.8827 136.717L60.8697 136.71C60.6128 136.945 60.5574 137.007 60.2348 137.289L59.4173 137.991L58.9152 137.709L59.1653 136.714C59.2274 136.48 59.3392 136.134 59.4113 135.905L59.3925 135.895C59.2232 136.156 59.0369 136.454 58.9185 136.629L58.3748 137.451L57.7603 137.104L59.2032 135.056Z" fill="#231F20"/>
<path d="M168.793 60.2617C168.793 61.6549 168.552 62.8789 168.07 63.9336C167.589 64.9818 166.898 65.7891 166 66.3555C165.108 66.9154 164.079 67.1953 162.914 67.1953C161.762 67.1953 160.733 66.9154 159.828 66.3555C158.93 65.7891 158.233 64.985 157.738 63.9434C157.25 62.9017 157.003 61.7005 156.996 60.3398V59.5391C156.996 58.1523 157.24 56.9284 157.729 55.8672C158.223 54.806 158.917 53.9954 159.809 53.4355C160.707 52.8691 161.736 52.5859 162.895 52.5859C164.053 52.5859 165.079 52.8659 165.971 53.4258C166.869 53.9792 167.562 54.7799 168.051 55.8281C168.539 56.8698 168.786 58.084 168.793 59.4707V60.2617ZM166.322 59.5195C166.322 57.944 166.023 56.7363 165.424 55.8965C164.831 55.0566 163.988 54.6367 162.895 54.6367C161.827 54.6367 160.99 55.0566 160.385 55.8965C159.786 56.7298 159.48 57.9115 159.467 59.4414V60.2617C159.467 61.8242 159.77 63.0319 160.375 63.8848C160.987 64.7376 161.833 65.1641 162.914 65.1641C164.008 65.1641 164.848 64.7474 165.434 63.9141C166.026 63.0807 166.322 61.8633 166.322 60.2617V59.5195ZM177.899 64.0801L181.024 56.4336H183.993V67H181.62V60.0078L178.709 67H177.098L174.178 59.9688V67H171.805V56.4336H174.793L177.899 64.0801ZM191.604 65.3008C192.197 65.3008 192.688 65.1283 193.079 64.7832C193.47 64.4382 193.678 64.0117 193.704 63.5039H195.94C195.914 64.1615 195.709 64.7767 195.325 65.3496C194.941 65.916 194.42 66.3652 193.763 66.6973C193.105 67.0293 192.395 67.1953 191.634 67.1953C190.156 67.1953 188.984 66.7168 188.118 65.7598C187.252 64.8027 186.819 63.4811 186.819 61.7949V61.5508C186.819 59.9427 187.249 58.6569 188.108 57.6934C188.968 56.7233 190.139 56.2383 191.624 56.2383C192.88 56.2383 193.902 56.6061 194.69 57.3418C195.485 58.071 195.901 59.0312 195.94 60.2227H193.704C193.678 59.6172 193.47 59.1191 193.079 58.7285C192.695 58.3379 192.203 58.1426 191.604 58.1426C190.836 58.1426 190.244 58.4225 189.827 58.9824C189.41 59.5358 189.199 60.3789 189.192 61.5117V61.8926C189.192 63.0384 189.397 63.8945 189.807 64.4609C190.224 65.0208 190.823 65.3008 191.604 65.3008ZM202.087 62.8203H200.886V67H198.513V56.4336H200.886V60.6523H201.931L204.851 56.4336H207.78L203.962 61.4922L208.103 67H205.017L202.087 62.8203ZM216.603 56.4336H218.966V67H216.603V59.9492L212.463 67H210.099V56.4336H212.463V63.4844L216.603 56.4336ZM228.688 56.4336H231.051V67H228.688V59.9492L224.547 67H222.184V56.4336H224.547V63.4844L228.688 56.4336ZM229.801 52.3809C229.801 53.2012 229.514 53.8652 228.941 54.373C228.368 54.8809 227.604 55.1348 226.646 55.1348C225.689 55.1348 224.924 54.8809 224.352 54.373C223.779 53.8652 223.492 53.2012 223.492 52.3809H225.27C225.27 52.8105 225.39 53.1458 225.631 53.3867C225.878 53.6211 226.217 53.7383 226.646 53.7383C227.076 53.7383 227.411 53.6211 227.652 53.3867C227.893 53.1458 228.014 52.8105 228.014 52.3809H229.801ZM249.077 54.7734H242.514V67H240.054V52.7812H249.077V54.7734ZM249.56 61.6191C249.56 60.584 249.765 59.653 250.175 58.8262C250.585 57.9928 251.161 57.3548 251.904 56.9121C252.646 56.4629 253.499 56.2383 254.462 56.2383C255.888 56.2383 257.043 56.6973 257.929 57.6152C258.821 58.5332 259.303 59.7507 259.374 61.2676L259.384 61.8242C259.384 62.8659 259.182 63.7969 258.779 64.6172C258.381 65.4375 257.808 66.0723 257.06 66.5215C256.318 66.9707 255.458 67.1953 254.482 67.1953C252.991 67.1953 251.796 66.7005 250.898 65.7109C250.006 64.7148 249.56 63.39 249.56 61.7363V61.6191ZM251.933 61.8242C251.933 62.9115 252.157 63.7643 252.607 64.3828C253.056 64.9948 253.681 65.3008 254.482 65.3008C255.282 65.3008 255.904 64.9883 256.347 64.3633C256.796 63.7383 257.021 62.8236 257.021 61.6191C257.021 60.5514 256.79 59.7051 256.327 59.0801C255.872 58.4551 255.25 58.1426 254.462 58.1426C253.687 58.1426 253.072 58.4518 252.616 59.0703C252.161 59.6823 251.933 60.6003 251.933 61.8242ZM266.332 65.3008C266.924 65.3008 267.416 65.1283 267.806 64.7832C268.197 64.4382 268.405 64.0117 268.431 63.5039H270.668C270.642 64.1615 270.436 64.7767 270.052 65.3496C269.668 65.916 269.147 66.3652 268.49 66.6973C267.832 67.0293 267.123 67.1953 266.361 67.1953C264.883 67.1953 263.711 66.7168 262.845 65.7598C261.979 64.8027 261.546 63.4811 261.546 61.7949V61.5508C261.546 59.9427 261.976 58.6569 262.836 57.6934C263.695 56.7233 264.867 56.2383 266.351 56.2383C267.608 56.2383 268.63 56.6061 269.418 57.3418C270.212 58.071 270.629 59.0312 270.668 60.2227H268.431C268.405 59.6172 268.197 59.1191 267.806 58.7285C267.422 58.3379 266.931 58.1426 266.332 58.1426C265.563 58.1426 264.971 58.4225 264.554 58.9824C264.138 59.5358 263.926 60.3789 263.92 61.5117V61.8926C263.92 63.0384 264.125 63.8945 264.535 64.4609C264.951 65.0208 265.55 65.3008 266.332 65.3008ZM276.756 63.6016L278.904 56.4336H281.434L277.234 68.6016C276.59 70.3789 275.496 71.2676 273.953 71.2676C273.608 71.2676 273.227 71.209 272.811 71.0918V69.2559L273.26 69.2852C273.859 69.2852 274.308 69.1745 274.607 68.9531C274.913 68.7383 275.154 68.3737 275.33 67.8594L275.672 66.9512L271.961 56.4336H274.52L276.756 63.6016ZM282.903 65.1055C283.56 64.3698 284 63.6732 284.221 63.0156C284.449 62.3516 284.586 61.5052 284.631 60.4766L284.768 56.4336H292.102V65.1055H293.567V70.1445H291.204V67H284.426V70.1445H282.024L282.034 65.1055H282.903ZM285.686 65.1055H289.739V58.4746H287.073L287.004 60.4961C286.913 62.4362 286.474 63.9727 285.686 65.1055ZM302.175 67C302.07 66.7982 301.979 66.4694 301.901 66.0137C301.146 66.8014 300.221 67.1953 299.128 67.1953C298.067 67.1953 297.201 66.8926 296.53 66.2871C295.86 65.6816 295.524 64.9329 295.524 64.041C295.524 62.9147 295.941 62.0521 296.774 61.4531C297.614 60.8477 298.812 60.5449 300.368 60.5449H301.823V59.8516C301.823 59.3047 301.67 58.8685 301.364 58.543C301.058 58.2109 300.593 58.0449 299.968 58.0449C299.427 58.0449 298.985 58.1816 298.639 58.4551C298.294 58.722 298.122 59.0638 298.122 59.4805H295.749C295.749 58.901 295.941 58.3607 296.325 57.8594C296.709 57.3516 297.23 56.9544 297.887 56.668C298.552 56.3815 299.29 56.2383 300.104 56.2383C301.341 56.2383 302.328 56.5508 303.063 57.1758C303.799 57.7943 304.177 58.6667 304.196 59.793V64.5586C304.196 65.5091 304.33 66.2676 304.596 66.834V67H302.175ZM299.567 65.291C300.036 65.291 300.475 65.1771 300.886 64.9492C301.302 64.7214 301.615 64.4154 301.823 64.0312V62.0391H300.544C299.665 62.0391 299.004 62.1921 298.561 62.498C298.119 62.804 297.897 63.237 297.897 63.7969C297.897 64.2526 298.047 64.6172 298.346 64.8906C298.652 65.1576 299.059 65.291 299.567 65.291ZM316.534 61.8242C316.534 63.4583 316.163 64.7637 315.421 65.7402C314.679 66.7103 313.683 67.1953 312.433 67.1953C311.274 67.1953 310.346 66.8145 309.65 66.0527V71.0625H307.277V56.4336H309.464L309.562 57.5078C310.258 56.6615 311.206 56.2383 312.404 56.2383C313.693 56.2383 314.702 56.7201 315.431 57.6836C316.167 58.6406 316.534 59.972 316.534 61.6777V61.8242ZM314.171 61.6191C314.171 60.5645 313.96 59.7279 313.536 59.1094C313.12 58.4909 312.521 58.1816 311.739 58.1816C310.769 58.1816 310.073 58.582 309.65 59.3828V64.0703C310.079 64.8906 310.782 65.3008 311.759 65.3008C312.514 65.3008 313.103 64.998 313.527 64.3926C313.956 63.7806 314.171 62.8561 314.171 61.6191ZM323.492 65.3008C324.084 65.3008 324.576 65.1283 324.966 64.7832C325.357 64.4382 325.565 64.0117 325.591 63.5039H327.828C327.802 64.1615 327.597 64.7767 327.212 65.3496C326.828 65.916 326.308 66.3652 325.65 66.6973C324.992 67.0293 324.283 67.1953 323.521 67.1953C322.043 67.1953 320.871 66.7168 320.005 65.7598C319.14 64.8027 318.707 63.4811 318.707 61.7949V61.5508C318.707 59.9427 319.136 58.6569 319.996 57.6934C320.855 56.7233 322.027 56.2383 323.511 56.2383C324.768 56.2383 325.79 56.6061 326.578 57.3418C327.372 58.071 327.789 59.0312 327.828 60.2227H325.591C325.565 59.6172 325.357 59.1191 324.966 58.7285C324.582 58.3379 324.091 58.1426 323.492 58.1426C322.724 58.1426 322.131 58.4225 321.714 58.9824C321.298 59.5358 321.086 60.3789 321.08 61.5117V61.8926C321.08 63.0384 321.285 63.8945 321.695 64.4609C322.112 65.0208 322.711 65.3008 323.492 65.3008ZM338.535 58.3184H335.107V67H332.734V58.3184H329.346V56.4336H338.535V58.3184ZM340.903 67V56.4336H345.19C346.635 56.4336 347.735 56.6875 348.491 57.1953C349.246 57.6966 349.623 58.4193 349.623 59.3633C349.623 59.8516 349.47 60.291 349.164 60.6816C348.865 61.0658 348.419 61.362 347.827 61.5703C348.517 61.7135 349.064 62.0033 349.467 62.4395C349.871 62.8757 350.073 63.39 350.073 63.9824C350.073 64.9655 349.708 65.7142 348.979 66.2285C348.256 66.7428 347.215 67 345.854 67H340.903ZM343.276 62.498V65.125H345.873C347.091 65.125 347.7 64.6888 347.7 63.8164C347.7 62.9375 347.081 62.498 345.844 62.498H343.276ZM343.276 60.7988H345.229C346.577 60.7988 347.25 60.4017 347.25 59.6074C347.25 58.7741 346.612 58.3444 345.336 58.3184H343.276V60.7988ZM357.382 67.1953C355.878 67.1953 354.657 66.7233 353.72 65.7793C352.789 64.8288 352.323 63.5658 352.323 61.9902V61.6973C352.323 60.6426 352.525 59.7018 352.929 58.875C353.339 58.0417 353.912 57.3939 354.647 56.9316C355.383 56.4694 356.203 56.2383 357.108 56.2383C358.547 56.2383 359.657 56.6973 360.438 57.6152C361.226 58.5332 361.62 59.832 361.62 61.5117V62.4688H354.716C354.787 63.3411 355.077 64.0312 355.585 64.5391C356.099 65.0469 356.744 65.3008 357.518 65.3008C358.606 65.3008 359.491 64.8613 360.175 63.9824L361.454 65.2031C361.031 65.8346 360.464 66.3262 359.755 66.6777C359.052 67.0228 358.261 67.1953 357.382 67.1953ZM357.098 58.1426C356.447 58.1426 355.92 58.3704 355.516 58.8262C355.119 59.2819 354.865 59.9167 354.755 60.7305H359.276V60.5547C359.224 59.7604 359.012 59.1615 358.641 58.7578C358.27 58.3477 357.756 58.1426 357.098 58.1426ZM373.021 67H370.648V62.7324H366.536V67H364.163V56.4336H366.536V60.8379H370.648V56.4336H373.021V67ZM385.105 67H382.732V62.7324H378.621V67H376.248V56.4336H378.621V60.8379H382.732V56.4336H385.105V67ZM390.793 59.793H393.117C393.983 59.793 394.738 59.9427 395.383 60.2422C396.027 60.5417 396.516 60.9616 396.848 61.502C397.186 62.0423 397.355 62.6706 397.355 63.3867C397.355 64.474 396.971 65.3464 396.203 66.0039C395.435 66.6615 394.413 66.9935 393.137 67H388.42V56.4336H390.793V59.793ZM401.486 67H399.113V56.4336H401.486V67ZM390.793 61.6973V65.1055H393.107C393.687 65.1055 394.143 64.9622 394.475 64.6758C394.813 64.3828 394.982 63.9694 394.982 63.4355C394.982 62.9017 394.816 62.4818 394.484 62.1758C394.159 61.8633 393.716 61.7038 393.156 61.6973H390.793ZM411.53 56.4336H413.893V67H411.53V59.9492L407.389 67H405.026V56.4336H407.389V63.4844L411.53 56.4336ZM412.643 52.3809C412.643 53.2012 412.357 53.8652 411.784 54.373C411.211 54.8809 410.446 55.1348 409.489 55.1348C408.532 55.1348 407.767 54.8809 407.194 54.373C406.621 53.8652 406.334 53.2012 406.334 52.3809H408.112C408.112 52.8105 408.232 53.1458 408.473 53.3867C408.72 53.6211 409.059 53.7383 409.489 53.7383C409.918 53.7383 410.254 53.6211 410.495 53.3867C410.735 53.1458 410.856 52.8105 410.856 52.3809H412.643Z" fill="#113D76"/>
<path d="M176.654 91.1836H168.428V114H165.07V91.1836H156.861V88.4062H176.654V91.1836ZM194.918 102.17H183.826V111.24H196.711V114H180.451V88.4062H196.535V91.1836H183.826V99.4102H194.918V102.17ZM209.262 98.2148L215.396 88.4062H219.369L211.283 101.098L219.562 114H215.555L209.262 104.016L202.934 114H198.943L207.24 101.098L199.137 88.4062H203.092L209.262 98.2148ZM243.152 114H239.76V102.17H226.857V114H223.482V88.4062H226.857V99.4102H239.76V88.4062H243.152V114ZM265.283 88.4062H268.658V114H265.283V94.2773L252.68 114H249.287V88.4062H252.68V108.129L265.283 88.4062ZM292.863 88.4062V114H289.471V103.4C288.24 103.752 287.121 103.998 286.113 104.139C285.105 104.268 283.957 104.332 282.668 104.332C279.75 104.332 277.582 103.699 276.164 102.434C274.746 101.168 274.02 99.2285 273.984 96.6152V88.4062H277.377V96.5273C277.389 98.3086 277.793 99.5918 278.59 100.377C279.398 101.162 280.758 101.555 282.668 101.555C284.895 101.555 287.162 101.238 289.471 100.605V88.4062H292.863ZM313.43 102.17H302.338V111.24H315.223V114H298.963V88.4062H315.047V91.1836H302.338V99.4102H313.43V102.17ZM338.25 105.879C337.934 108.586 336.932 110.678 335.244 112.154C333.568 113.619 331.336 114.352 328.547 114.352C325.523 114.352 323.098 113.268 321.27 111.1C319.453 108.932 318.545 106.031 318.545 102.398V99.9375C318.545 97.5586 318.967 95.4668 319.811 93.6621C320.666 91.8574 321.873 90.4746 323.432 89.5137C324.99 88.541 326.795 88.0547 328.846 88.0547C331.564 88.0547 333.744 88.8164 335.385 90.3398C337.025 91.8516 337.98 93.9492 338.25 96.6328H334.857C334.564 94.5938 333.926 93.1172 332.941 92.2031C331.969 91.2891 330.604 90.832 328.846 90.832C326.689 90.832 324.996 91.6289 323.766 93.2227C322.547 94.8164 321.938 97.084 321.938 100.025V102.504C321.938 105.281 322.518 107.49 323.678 109.131C324.838 110.771 326.461 111.592 328.547 111.592C330.422 111.592 331.857 111.17 332.854 110.326C333.861 109.471 334.529 107.988 334.857 105.879H338.25ZM349.518 102.504H346.406V114H343.031V88.4062H346.406V99.6914H349.043L357.99 88.4062H362.191L352.418 100.816L362.912 114H358.781L349.518 102.504ZM382.143 88.4062H385.518V114H382.143V94.2773L369.539 114H366.146V88.4062H369.539V108.129L382.143 88.4062ZM407.807 88.4062H411.182V114H407.807V94.2773L395.203 114H391.811V88.4062H395.203V108.129L407.807 88.4062ZM406.857 82.043C406.857 83.4609 406.371 84.6035 405.398 85.4707C404.438 86.3262 403.172 86.7539 401.602 86.7539C400.031 86.7539 398.76 86.3203 397.787 85.4531C396.814 84.5859 396.328 83.4492 396.328 82.043H398.982C398.982 82.8633 399.205 83.5078 399.65 83.9766C400.096 84.4336 400.746 84.6621 401.602 84.6621C402.422 84.6621 403.061 84.4336 403.518 83.9766C403.986 83.5195 404.221 82.875 404.221 82.043H406.857Z" fill="#113D76"/>
<path d="M168.43 143.26L174.319 128.406H178.239L169.186 149.729C168.577 151.088 168.008 152.055 167.481 152.629C166.954 153.191 166.332 153.625 165.618 153.93C164.914 154.223 164.03 154.369 162.963 154.369C162.038 154.369 161.446 154.316 161.188 154.211L161.293 151.539L162.893 151.609C164.123 151.609 165.038 151.018 165.635 149.834L166.075 148.92L166.743 147.355L158.024 128.406H161.803L168.43 143.26ZM202.492 154H199.099V142.17H186.197V154H182.822V128.406H186.197V139.41H199.099V128.406H202.492V154ZM225.162 128.406H228.537V154H225.162V134.277L212.559 154H209.166V128.406H212.559V148.129L225.162 128.406ZM235.23 154V128.406H243.597C246.374 128.406 248.46 128.98 249.855 130.129C251.261 131.277 251.964 132.977 251.964 135.227C251.964 136.422 251.624 137.482 250.945 138.408C250.265 139.322 249.339 140.031 248.167 140.535C249.55 140.922 250.64 141.66 251.437 142.75C252.245 143.828 252.65 145.117 252.65 146.617C252.65 148.914 251.906 150.719 250.417 152.031C248.929 153.344 246.825 154 244.107 154H235.23ZM238.605 142.029V151.24H244.177C245.747 151.24 246.984 150.836 247.886 150.027C248.8 149.207 249.257 148.082 249.257 146.652C249.257 143.57 247.581 142.029 244.23 142.029H238.605ZM238.605 139.322H243.702C245.179 139.322 246.357 138.953 247.236 138.215C248.126 137.477 248.572 136.475 248.572 135.209C248.572 133.803 248.161 132.783 247.341 132.15C246.521 131.506 245.273 131.184 243.597 131.184H238.605V139.322ZM272.666 142.17H261.574V151.24H274.459V154H258.199V128.406H274.283V131.184H261.574V139.41H272.666V142.17ZM282.575 143.98V154H279.2V128.406H288.64C291.441 128.406 293.632 129.121 295.214 130.551C296.808 131.98 297.605 133.873 297.605 136.229C297.605 138.713 296.825 140.629 295.267 141.977C293.72 143.312 291.499 143.98 288.605 143.98H282.575ZM282.575 141.221H288.64C290.445 141.221 291.827 140.799 292.788 139.955C293.749 139.1 294.23 137.869 294.23 136.264C294.23 134.74 293.749 133.521 292.788 132.607C291.827 131.693 290.509 131.219 288.833 131.184H282.575V141.221ZM321.278 145.879C320.961 148.586 319.959 150.678 318.272 152.154C316.596 153.619 314.363 154.352 311.574 154.352C308.551 154.352 306.125 153.268 304.297 151.1C302.481 148.932 301.572 146.031 301.572 142.398V139.938C301.572 137.559 301.994 135.467 302.838 133.662C303.694 131.857 304.901 130.475 306.459 129.514C308.018 128.541 309.822 128.055 311.873 128.055C314.592 128.055 316.772 128.816 318.412 130.34C320.053 131.852 321.008 133.949 321.278 136.633H317.885C317.592 134.594 316.953 133.117 315.969 132.203C314.996 131.289 313.631 130.832 311.873 130.832C309.717 130.832 308.024 131.629 306.793 133.223C305.574 134.816 304.965 137.084 304.965 140.025V142.504C304.965 145.281 305.545 147.49 306.705 149.131C307.865 150.771 309.488 151.592 311.574 151.592C313.449 151.592 314.885 151.17 315.881 150.326C316.889 149.471 317.557 147.988 317.885 145.879H321.278ZM342.577 128.406H345.952V154H342.577V134.277L329.974 154H326.581V128.406H329.974V148.129L342.577 128.406ZM369.801 131.184H361.574V154H358.217V131.184H350.008V128.406H369.801V131.184ZM388.605 142.17H377.513V151.24H390.398V154H374.138V128.406H390.222V131.184H377.513V139.41H388.605V142.17ZM413.174 131.184H404.947V154H401.59V131.184H393.381V128.406H413.174V131.184Z" fill="#113D76"/>
</svg>
